<?xml version="1.0" encoding="UTF-8"?>
<svg version="1.1" viewBox="0 0 2048 2048" width="700" height="700" xmlns="http://www.w3.org/2000/svg">
<path transform="translate(0)" d="m0 0h24l2 6 12 12 17 8 2 2 7 1 2 2h18l5-3h9l3-3h8l3 1v8l-2 2-1 16-3 1v5l3 1 1 16 2 2 2 5 1 5 2 4 18 18 14 7h9l1 2 16 1 1-3h7l5-3 5-2 13-13 1-7h2v-20l-2-1-1-8-5-4v-2h-5l-1-3-21 1-5 5h-2l1 4-4 2 1 4v10h-4l-2-2-5-2-3-2v-6h-3v-10l-3-2v-2l3-2v-9l2-2 2-5 13-13 4-1 1-1h8v-3h18l1 2h6l3 3h6l11 11 2 5 1 1v7l5-2 4-4 1-5 8-7 4-1 5-5h9l1-2 13-1 3 3 11 1v3l-6 2-4 5h-4l-5 6h-2v2h-2v5l-2 2-2 5h-2v5l-3 1v11l-2 1-1 8-2 1-1 8-2 1v8l-3 4v6l-3 2-1 5-3 1v2l-2 2-1 4-6 6h-2l-1 3h-2l-2 4-2 2h-5l-1 3-5 2-1 1h-5l-1 3h-6l-2 3-17 1-3 1 6 7 12 6 5 2 1 1 11 1v3h34l2-4h2v33l3 1 1 13 2 2 2 5 1 1 1 7 2 2 2 5 3 2 3 7 24 24 6 3 3 3 17 8 1 1 7 1 2 2 7 1 1 3 7-1 5 2 3 1 11 1 2 2h23l4 1 2 2 10 1 1 2h6l5 3 8 7 4 4 2 5 1 1v13l-1 1h-5l-8-8h-21l-5 5-2 6h-2l1 22 4 3 1 5 5 1 5 5 5 3 8 1v3l11-1h2l3-3 9 1 1-3 7-1 17-17 1-5 3-3v-5l2-2 1-25-3-1-1-7-2-3-2-4-2-5-14-14-5-2-5-4-4-2-5-2-4-2-5-1v-2h-5l-2-2-8-2v-2h-7l-2-2-7-1-2-2-5-2-1-1h-6l-3-3-5-2-6-3-3-3v-2l-6 1-3-2v-2l-3-1v-2l-3 1-6-5v-2h-2v-2l-5-1-19-19v-4l-3-1v-2h-2l-3-3-8-17-1-1-1-7-2-2-1-7-2-1-1-14-2-1v-35l2-1 1-14 2-1 1-7 5-8v-6l5-4 2-6 4-3 1-5 5-4 2-3h2l1-3h2l1-3 7-6 5-3 4-3 10-6 4-3h6l2-2 7-1 2-2 4-1 1-2h29l1-3h3l1 2 22 1 1 2h8l3 1 1 2 7 1 19 10 22 22 3 6 4 4 2 5 1 1 1 7 2 2 2 5 1 4v42l-3 1v10l-2 2-2 5-3 6-4 4-2 5-6 7-5-1-2 4-5 5-5 2-6 3-5 2-1 2h-10l-2 3h-25l-2-4-3 1h-7l-1-3h-5l-1-3h-2l-1-2-5-2-15-15-4-9v-2h-2l-1-8 1-3-3-1v-14l3-1-1-5 1-6 2-1 2-5 12-12 2-3h29l1 3h6l-1 4-4 3-5 2-7 7-2 5-1 4v15l2 2 2 5 7 7 4 1h16l11-1 8-5 12-12v-7l2-1v-25l-2-1v-8h-2l-4-10v-2h-2l-7-8-8-7v-2h-5l-1-2-6-2v-2l-10 1-2-3h-36l-3 3h-5l-8 5-5 2-18 18h-2v5l-4 4h-2v5l-2 2-1 7-2 2-1 10-2 1v30l2 1v11l3 1v8l3 1v8l4 2 2 2 2 5 7 8 3 5 5 2v5h5l5 5 5 2 12 6 5 2 1 2h7l4 1 2 2h10l3 1v2h28l1-3h17v-2l6-1v-2l5-2 6-2 4-5 5-2 11-11v-4l7-1 1 2v21l-3 3v6l-2 2-2 5-18 18-5 2-1 1-7 1-3 1v3l4 2 9 7 13 13 12 24-1 9h3l1 10v19l-1 7-3 9-1 1-1 7-2 1-2 6h-2v2l-2 1-1 5-5 4-4 5-8 7-3 3-4 1-4 5-7-1-1 4-8-1-1 3h-8v4l6 2 12 6 3 3 6 3 22 22 6 12 4 4v7l3 1v8l3 1v7l3 2v8l-1 2h3l2-13 3-1v-11l2-1 1-5 2-1 1-5 2-1 2-5 2-6 5-4v-4l8-7 12-12 5-2 4-4 10-4 2-2h6l-3-3h-9l-3-3-5-2-6-3-5-2-1-3h-2l-1-2-5-1-7-8-2-1-1-5-5-4v-2l-3-1-4-10-2-3-2-7-1-1v-46l2-1 1-7 2-2 2-5 3-6h2v-5l3-1 2-4 19-19h5l-3-4-7-1-2-2-5-2-6-3-12-12-4-10-2-2v-13h-2v-9l1-1 1-11h4v5l4 2 14 14v2l4 2 10 4v2l6 1 1 2h7l4 1 2 2h47l1-3h7l2-3h6l2-2 5-2 18-9 19-19 2-5 4-7 2-5 3-6 2-8h2v-11l3-1v-23l-3-1v-14l-3-1v-6l-2-2-2-5-3-6-4-4-2-5-8-8-4-1-7-7-5-2-1-1h-6l-3-3-7-1-1-3-13 1h-10l-5-1-1 4h-7l-3 3h-6l-1 2-6 2-3 4-6 2-5 5-6 12-2 3-2 4-1 10-3 4v10l3 3v6l3 5 4 8 6 5 12 6 20-1 8-5 6-6v-7l3-2v-10h-2l-1-6h-2l-1-5-2-1v-2h-5l-2-3h-7l-1-1v-5l6-3 1-1h5l1-3h19l2 2 5 2 6 3 6 6 2 5 3 6 1 1v7l3 1v23l-3 1v8l-2 1-2 5-3 6-15 15-4 1-1 2-5 1-1 2h-10l-2 3h-34l-2-3h-7l-1-3h-5l-1-3h-5l-1-3-5-1-21-21-2-5-7-13v-13h-3v-32l3-1v-11l2-1 1-7 2-2 1-5 5-4v-4l6-5v-4l8-7 6-6 5-2 8-7 10-5 3-1h5v-2l5-1 1-2 10-1 7 1v-3h33l1 2 13 1 2 2 10 1 1 3 3-1 3 2v2l6-1 2 1v2l5 1 4 4 6 3 6 6 5 2 7 8 2 4 9 9 2 5 10 19v7l3 1 1 10 2 1v50l-2 1-1 10-3 1v8l-2 2-2 5-4 7-2 5h-2v2l-2 1v4l-8 7-2 5-6 7-5 1-11 11h-3l-5 6h-4l-4 5-5 1-1 2-11 4-2 3h-6l-2 2h-5l-1 3h-6l-3 3h-5l-1 3h-6l-2 3h-7l-2 3h-8l-1 3h-5l-1 3h-5l-2 4-3 2-3-1-2 4-8 8h-5l1 4-4 2-2 4v6l-4 2 1 6-1 5-2 2v11l3 2v7l4 9 4 4 2 5 2 2 5 2v2l4 2 5 2 6 3v2l7-1h19l15-8 3-3 2-5 2-6 2-1v-12l-4-8-7-7h-15l-2 2-6 2-2 7h-6l-1-1v-20l2-1 1-5 8-7 5-2 4-1 1-2 9-1h2l1-2 19-1 1-2 20-1 6 1 1-3h11l1-3 7-1 2-2 7-1 2-2 5-2 12-6 4-4 5-2 6-6 5-1 2-4 5-4 2-6 7-6 1-5 5-4 2-5 1-1 1-7 2-2 1-7 1-1 1-8v-32l1-1h28l21-1 1-2 8-1 2-2 4-1 8-8-7-1-1-2-11-1-1-2-7-1-1-3h-5l-2-2-5-2-3-3v-2h-5l-4-4v-2l-3-1v-2l-3-1v-5l-4-2-2-4-3-4v-6l-3-2v-7l-3-2v-10l-3-3 1-9-3-1-1-5-2-1-1-7-2-2-4-10-14-14-5-2-6-3v-3l3-1h5l1-2h27l1 2h6l16 16 3 7 2 1 1-5 3-6 15-15 5-3h32l12 7 3 2v2l4 2 5 8 4 9-1 17-2 3-2 4h-2l-2 4-4 2-1 3-4-1-2 4-3-2v-7l3-3-3-2v-7l1-3h-6l-4-5h-15l-2 2-5 2-4 4-1 5-2 1-1 7-2 2-1 7 3 1v8h2l1 6h2l3 6 3 3v2l6 1v2l6 1v2h14l1 3h2v-3l14-1 2-2h7v-2l7-3 4-4h3l8-8 2-6 4-3 1-5 2-1 1-8 2-1v-33l-2-1-1-8-2-2v-5h9l2 2h6l2 1v3l4-1h30l19-9h2v-2l15-15h2v-2h48l2 6 12 12 17 8 2 2 7 1 2 2 21-1 2-2h9l3-3h8l3 1v8l-2 2-1 16-3 1v5l3 1 1 16 2 2 2 5 1 5 2 4 18 18 14 7h9l1 2 16 1 1-3h7l5-3 5-2 13-13 1-7h2v-20l-2-1-1-8-5-4v-2h-5l-1-3-21 1-5 5h-2l1 4-4 2 1 4v10h-4l-2-2-5-2-3-2v-6h-3v-10l-3-2v-2l3-2v-9l2-2 2-5 13-13 4-1 1-1h8v-3h18l1 2h6l3 3h6l11 11 2 5 1 1v7l5-2 4-4 1-5 8-7 4-1 5-5h9l1-2 13-1 3 3 11 1v3l-6 2-4 5h-4l-5 6h-2v2h-2v5l-2 2-2 5h-2v5l-3 1v11l-2 1-1 8-2 1-1 8-2 1v8l-3 4v6l-3 2-1 5-3 1v2l-2 2-1 4-6 6h-2l-1 3h-2l-2 4-2 2h-5l-1 3-5 2-1 1h-5l-1 3h-6l-2 3-17 1-3 1 6 7 12 6 5 2 1 1 11 1v3h34l2-4h2v33l3 1 1 13 2 2 2 5 1 1 1 7 2 2 2 5 3 2 3 7 24 24 6 3 3 3 17 8 1 1 7 1 2 2 7 1 1 3 7-1 5 2 3 1 11 1 2 2h23l4 1 2 2 10 1 1 2h6l5 3 8 7 4 4 2 5 1 1v13l-1 1h-5l-8-8h-21l-5 5-2 6h-2l1 22 4 3 1 5 5 1 5 5 5 3 8 1v3l11-1h2l3-3 9 1 1-3 7-1 17-17 1-5 3-3v-5l2-2 1-25-3-1-1-7-2-3-2-4-2-5-14-14-5-2-5-4-4-2-5-2-4-2-5-1v-2h-5l-2-2-8-2v-2h-7l-2-2-7-1-2-2-6-2v-2l-6 1-3-3-5-2-6-3-3-3v-2l-6 1-3-2v-2l-3-1v-2l-3 1-6-5v-2h-2v-2l-5-1-19-19v-4l-3-1v-2h-2l-3-3-8-17-1-1-1-7-2-2-1-7-2-1-1-14-2-1v-35l2-1 1-14 2-1 1-7 5-8v-6l5-4 2-6 4-3 1-5 5-4 2-3h2l1-3h2l1-3 7-6 5-3 4-3 10-6 4-3h6l2-2 7-1 2-2 4-1 1-2h29l1-3h3l1 2 22 1 1 2h8l3 1 1 2 7 1 19 10 22 22 3 6 4 4 2 5 1 1 1 7 2 2 2 5 1 4v42l-3 1v10l-2 2-2 5-3 6-4 4-2 5-6 7-5-1-2 4-5 5-5 2-6 3-5 2-1 2h-10l-2 3h-25l-2-4-3 1h-7l-1-3h-5l-1-3h-2l-1-2-5-2-15-15-4-9v-2h-2l-1-8 1-3-3-1v-14l3-1-1-5 1-6 2-1 2-5 12-12 2-3h29l1 3h6l-1 4-4 3-5 2-7 7-2 5-1 4v15l2 2 2 5 7 7 8 1h9l2 2 1-2h11v-2l7-3 13-13v-7l2-1v-25l-2-1v-8h-2l-4-10v-2h-2l-7-8-8-7v-2h-5l-1-3h-5l-1-3-10 1-2-3h-36l-3 3h-5l-8 5-5 2-18 18h-2v5l-4 4h-2v5l-2 2-1 7-2 2-1 10-2 1v30l2 1v11l3 1v8l3 1v8l4 2 2 2 2 5 7 8 3 5 5 2 1 4 5 2 4 4 5 2 12 6 5 2 1 2h7l4 1 2 2h10l3 1v2h28l1-3h17v-2l6-1v-2l5-2 6-2 4-5 5-2 11-11v-4l7-1 1 2v21l-3 3v6l-2 2-2 5-18 18-5 2-1 1-7 1-3 1v3l4 2 9 7 13 13 12 24-1 9h3l1 10v19l-1 7-3 9-1 1-1 7-2 1-2 6h-2v2l-2 1-1 5-5 4-4 5-8 7-3 3-4 1-4 5-7-1-1 4-8-1-1 3h-8v4l6 2 12 6 3 3 6 3 22 22 6 12 4 4v7l3 1v8l3 1v7l3 2v8l-1 2h3l2-13 3-1v-11l2-1 1-5 2-1 1-5 2-1 2-5 2-6 5-4v-4l8-7 12-12 5-2 4-4 15-6 3-1-3-2h-9l-3-3-5-2-6-3-5-2-1-3h-2l-1-2-5-1-7-8-2-1-1-5-5-4v-2l-3-1-4-10-2-3-2-7-1-1v-46l2-1 1-7 2-2 2-5 3-6h2v-5l3-1 2-4 19-19h5l-3-4-7-1-2-2-5-2-6-3-12-12-4-10-2-2v-13h-2v-9l1-1 1-11h4v5l4 2 14 14v2l4 2 10 4v2l6 1 1 2h7l4 1 2 2h47l1-3h7l2-3h6l2-2 5-2 18-9 19-19 2-5 4-7 2-5 3-6 2-8h2v-11l3-1v-23l-3-1v-14l-3-1v-6l-2-2-2-5-3-6-4-4-2-5-8-8-4-1-7-7-5-2-1-1h-6l-3-3-7-1-1-3-13 1h-10l-5-1-1 4h-7l-3 3h-6l-1 2-6 2-3 4-6 2-5 5-6 12-2 3-2 4-1 10-3 4v10l3 3v6l3 5 4 8 6 5 12 6 20-1 8-5 6-6v-7l3-2v-10h-2l-1-6h-2l-1-5-2-1v-2h-5l-2-3h-7l-1-1v-5l6-3 1-1h5l1-3h19l2 2 5 2 6 3 6 6 2 5 3 6 1 1v7l3 1v23l-3 1v8l-2 1-2 5-3 6-15 15-4 1-1 2-5 1-1 2h-10l-2 3h-34l-2-3h-7l-1-3h-5l-1-3h-5l-1-3-5-1-21-21-2-5-7-13v-13h-3v-32l3-1v-11l2-1 1-7 2-2 1-5 5-4v-4l6-5v-4l8-7 6-6 5-2 8-7 10-5 3-1h5v-2l5-1 1-2 10-1 7 1v-3h33l1 2 13 1 2 2 10 1 1 3 3-1 3 2v2l6-1 2 1v2l5 1 4 4 6 3 6 6 5 2 7 8 2 4 9 9 2 5 10 19v7l3 1 1 10 2 1v50l-2 1-1 10-3 1v8l-2 2-2 5-4 7-2 5h-2v2l-2 1v4l-8 7-2 5-6 7-5 1-11 11h-3l-5 6h-4l-4 5-5 1-1 2-11 4-2 3h-6l-2 2h-5l-1 3h-6l-3 3h-5l-1 3h-6l-2 3h-7l-2 3h-8l-1 3h-5l-1 3h-5l-2 4-3 2-3-1-2 4-8 8h-5l1 4-4 2-2 4v6l-4 2 1 6-1 5-2 2v11l3 2v7l4 9 4 4 2 5 2 2 5 2v2l4 2 5 2 6 3v2l7-1h19l15-8 3-3 2-5 2-6 2-1v-12l-4-8-7-7h-15l-2 2-6 2-2 7h-6l-1-1v-20l2-1 1-5 8-7 5-2 4-1 1-2 9-1h2l1-2 19-1 1-2 20-1 6 1 1-3h11l1-3 7-1 2-2 7-1 2-2 5-2 12-6 4-4 5-2 6-6 5-1 2-4 5-4 2-6 7-6 1-5 5-4 2-5 1-1 1-7 2-2 1-7 1-1 1-8v-32l1-1h28l21-1 1-2 8-1 2-2 5-2 7-7-7-1-1-2-11-1-1-2-7-1-1-3h-5l-2-2-5-2-3-3v-2h-5l-4-4v-2l-3-1v-2l-3-1v-5l-4-2-2-4-3-4v-6l-3-2v-7l-3-2v-10l-3-3 1-9-3-1-1-5-2-1-1-7-2-2-4-10-14-14-5-2-6-3v-3l3-1h5l1-2h27l1 2h6l16 16 3 7 2 1 1-5 3-6 15-15 5-3h32l12 7 3 2v2l4 2 5 8 4 9-1 17-2 3-2 4h-2l-2 4-4 2-1 3-4-1-2 4-3-2v-7l3-3-3-2v-7l1-3h-6l-4-5h-15l-2 2-5 2-4 4-1 5-2 1-1 7-2 2-1 7 3 1v8h2l1 6h2l3 6 3 3v2l6 1v2l6 1v2h14l2 2 1-2 14-1 2-2h7v-2l7-3 4-4h3l8-8 2-6 4-3 1-5 2-1 1-8 2-1v-33l-2-1-1-8-2-2v-5h9l2 2h6l2 1v3l4-1h30l19-9 17-17h2v-2h24v24l-6 2-10 10-2 6-4 3-2 5-4 8-1 9-2 2v14l2 2 1 13 2 1 1 8 2 2v3h-8l-2-1v-2h-16l-2-2-10-1-1 3-13 1-2 2h-6l-5 5-5 2-4 2-2-1 1 4-12 12-1 4-3 6-2 7-1 5-2 3v14l3 1v11h2l2 5 4 4v2l3 1v2l4 2 2 4h8l1 3h19v-2l11-5h2l2-7 1-1 1-17-1-5-5-5-5-2-1-1h-12l-2-1 3-9 5-4 5-2 3-1h4l2-3h6l5 3 6 1 6 3v2l3 1v2l3 1v2l3 1v2h2l3 6 1 1v8h3v21l-2 1-1 8-4 3h-2l1 4-8 8-10 4-6 2 5 2 8 5 7 7 2 5 6 12 1 1v16l-2 2-1 11h-3l-3-6-4-4-2-5-7-7-5-2-12-6-1-1-7-1-2-2-10-1-1-3-9 1-3-3-5-1-1-2h-6l-3-3-4-1-4-2-10-6-8-8v-2h-2l-3-3-2-5-4-7-2-5-1-1-1-7-2-1-1-17-3-2-8 8-2 5-1 1-1 7-2 2-1 8h-3v31l3 1v9l-29 1-2 3h-8l-5-1-2 4-7-1-2 4h-6l-2 2-5 2-3 4-5 1-26 26-1 4-4 4-2 5-6 12-1 1-1 7-2 2-1 7-3 1v8l-3 1v17l-2 1-1 28-3 1v11l-2 1v6l-3 4-2 4-9 9h-4l-1 3h-14l-1-1v-6l7-6 1-4v-15l-2-5-6-6-14-1h-3-7l-18 18v9l-4 2 1 13 2 1 1 10 2 2 4 10 14 14 6 3 3 1 5 1v2h26l1-3 7-1 2-2 5-2 6-3 13-13v-4l5-4 1-5 3-3v-5l2-2 2-5 3-6 1-1 1-10 3-1v-5l2-1 1-8 2-1 1-7 8-15 6-13 5-6 2-5 7-7 2-5h2l2-4 16-16 6-3 3-3 17-8 10-5h7l1-2h11l1-3h41l1 2 10 1 2 2 7 1v2l6 2 17 8 4 4 6 3 17 17 3 6 3 3 1 5h2l9 15v11l3 1v8h3v56l-3 1v11l-5 4-1 7-2 2-4 10-5 1-1 5-19 19-4-1-2 4-2 2-5 2-1 1h-5l-1 3h-6l-2 3-20 1-2 2h-7l-3-3h-17l-2-3h-7l-1-3h-5l-4-5-5-2-22-22-2-1-1-7-2-2-1-5-2-1-1-10-2-2v-26h3v-11l3-1v-5l3-1v-5l6-5 7-8 5-4 4-5 7 1 1-3h11v-3h12l1 3h13l2 2 5 2 12 12 1 4 2 1 1 8 2 1v5l-2 2-1 10-2 1-1 6-4-1-3-4v-4l-4-2-5-5v-2h-5l-1-3-18 1-5 5-5 1-1 2h-2l1 4-3 4v8l-4 2v4h3l1 4v7l2 2 2 5 14 14h10l1 2 22 1 1-3h8v-2l12-6 16-16 4-10h2v-8l2-1 1-10v-28l-3-1v-6l-3-4v-5l-2-2-2-5-22-22-5-2-6-3-1-1-7-1-2-2-7-1-1-3-5 1h-31l-3 3h-9l-1 2-5 1-1 2h-8l-1 3h-2l-1 3h-5l-1 3h-2l-1 3h-4l-7 8h-2v5l-4 4h-2l-1 3h-2v5l-4 4h-2l1 6-3 3-1 5-2 1v8l-1 3-2 1v12l-3 4v25l2 1 1 14 2 1v8l3 1v5l3 1 2 5 4 4 2 5 9 9 1 2 5 1 1 5-5 2h-18l-4-3h-6l-1-3-5-1-15-15-2-5-4-7-1-7-4 1-8 8-1 5-5 4-3 3h-3l-7 8h-5l-1 3h-5l-1 3h-8l-1 3h-9l-5 3h-25l-2-1v-2h-10l-2-2-7-1-1-3h-5l-4-4v-2h-5l-9-10-7-7-3-2v-5l-3-1v-2l-3-1v-6l-3-2v-7l-2-2-2-5-1-3h-2v5l-2 2-2 5-4 5-2 4-2 5-24 24-10 4-13 7-5 1-3 1-1 2h-7l-1 2-7 1h-7l6 3 9 1 2 1v2h11l1 2 5 2 24 12 20 20 2 5 4 4 2 5 3 6 1 1 1 7 2-5 1-1 1-7 2-2v-6l6-6 1-4 3-6h2l2-4 12-12 4-1 4-4 10-4 2-2 7-1 2-2 15-1 4-2 10 1v2h16l2 2 7 1 2 2 5 2 11 6 13 13 5 4v2l3 1v2h2l1 6 4-4 1-10 5-4 1-5 8-7 5-5 5-2 6-3 1-1h10v-2l3-1 10 1v2h8l1 3-8 7-7 7-4 5-4 3-2 5-6 12-1 1-1 8-2 1-1 19-2 2v8l2 2 1 19 2 1 1 8 2 1v8l3 1 4 10 5 8 3 4 3 5 12 12 5 2v2l16 8 5 2v2h8l1 2h13l4 1 1 2h12l1-2 15-1 2 1 1-3 7-1 2-2 5-2 6-3 7-7 5-2 4-4 1-5 5-4 1-5 5-4v-7l3-2v-9l3-3v-23l-3-2v-9l-8-15-3-6-9-9-6-2v-2h-2l-1-2-5-1-1-2h-10l-2-3h-15l-2 3h-9l-5 5-5 2-4 4h-2l1 4-3 4-2 4-1 9v10l4 9 5 5 5 2 5 1 4 2 4 1 3-3h7l2-4 8-8 1-7 1-1h5l1 1v5l3 1v5l3 1v19l-2 2-2 5-3 6-6 6h-5l-1 3h-5l-1 3h-7l-1 3h-20l-1-3-10 1-2-4h-5l-1-3-5-1-12-12-1-4-5-4-2-6-1-1v-10l-3-1v-35l2-1 1-10 5-4 1-5 2-1 1-5 7-6 7-8 5-4 3-3 18-9h10v-3h35l1 3h11l1 2 7 1 2 2 5 2 6 3 4 4 7 4 14 14 3 6 4 5 8 16 1 1 1 7 2 1v17l3 1v32l-2 1-1 13-3 1v11l-2 1-4 10-7 13-2 5-7 7-2 6-5 1-14 14-4-1-2 4-2 2-5 2-6 3-5 2-1 2h-8l-1 3-13 1-1 2h-47l-1-3h-7l-2-2-7-1-2-2-7-1-1-3h-5l-1-3h-5l-1-3h-2l-1-2-5-1-7-8-3-3-5-1-3-3-2-6-10-10-1-4-2-1v-2h-2l-1-6-3-1v-2h-2l-2-5-4-7-2-5-1-1-1-7-2-2-2-5-1-1-1-7-2-1v-8l-3-1-1-5-2-1v-8l-3-1-1-7-5-8v-5l-4-2-2-3-2-4-6-6-2-5-4-2-4-3-4-1-4-4v-2l-10 1-3-3h-17l-2 3h-7l-1 2-6 1-1 3-4-1-2 4-6 5-2 6h-2l-1 3h-2v8l-3 1 1 27 2 2 2 5 3 6 4 4 12 6 13 1v-2l6-1 2-4 6-6v-14l-2-2-2-5-2-2-5-1v-6l1-1 7-1 2-2 5 1 4 2 5 1 9 9 2 5 3 6 1 1 1 10 2 1v20l3 1v25l3 1v11l3 1v8l3 1 1 7 2 2 4 10 5 8 2 1 2 6 7 7 2 5 7 7 6 3 6 6 17 8 6 3 1 1 10 1 1 3 6-1 32 1v23l-2 2-1 4 3 1 1 19 2 2 1 7 2 2 2 5 5 5 4 3-1-2v-6l2-1 1-11 2-1 1-7 2-2 2-5 3-6 1-5 8-7 6-6 5-2 4-4 5-2 8-4h8l1-2 8-1 1-2h11l1-3h8l1-3 7-1 2-2 5-2 6-3 10-10 2-5 3-6 3-4h3l1 9 2 1v26l-3 1 1 7-16 16-7 3-1 2 5 1 6 3 6 2 2 6 7 7 1 7 2 1v26l-3 1v8l-2 1-1 5-8 7-3 3h-3l-2 3-7-1-1 3-14 1-1-4-7 1-11-11v-8l5-1 13-1 7-7 1-4v-9l-4-10-7-7-8-1-1-2h-13l-1 2h-8l-1 3h-5l-1 3h-2l-1 3-4 3v4l-2 1-2 6h-2v13l-1 3 1 2v12l3 3v6l2 2 2 5 4 3 2 6 4 4 6 3 8 7h6l1 2 8 1v3l28-1 1-2h11v-2l7-1v9l-2 2-1 8h-3l1 8v28l2 2 4 10 5 8 15 15 2 1v47l-19 19-4 10-5 8v32l2 2 1 10 2 2v9l-4-1v-2h-11l-1-2-34-1-1 3h-6l-5 3-9 5-13 13-4 10-3 6-1 1-1 30 3 3v5l8 9 3 2v2h2l1 2 6 2v2l24-1 8-5 4-4 3-9v-10l-4-8-2-2-5-2-5-1h-6v2h-7l2-4 5-11 4-4 4-1 4-2h20l11 6 1 3 3 1v2l3 1 9 15v28l-2 2-2 5-3 6-11 11-6 3-5 1 5 2 6 5 5 3 2 6 5 4v8h3v27l-2 1-1 8h-3l-6-12-13-13-11-5-6-3-1-1-7-1-1-3h-10l-2-2-7-1-2-2h-9l-3-3-5-2-6-3-5-2-5-5-4-1-1-3h-2v-2l-3-1-1-6h-2v-2l-3-1-2-5-3-6-1-1-1-7-2-2-1-10-2-1-1-8h-2l-1 5-5 4-2 5-1 1-1 7-2 2-1 49h-10l-1-2h-12l-1 2-12 1-5-1-1 3-10 1-2 2-10 4-2 2-5 2-5 4-4 2-16 16-1 4-5 6-2 4-3 3-2 5-6 12-1 1-1 7-3 1v8l-3 1v11l-2 1-1 25-3 1v20l-2 1v8l-3 5-2 4-4 3-1 5-4 4h-4l-1 3h-20l-4-4v-3l11-4 2-5 1-4v-9l-3-9-5-1-3-4h-19l-4 5-5 1-5 5-2 5-3 6-1 1v26l7 13 4 4 2 4 4 2v2l5 2 9 4v2h32l1-3 7-1 2-2 5-2 15-15 8-17 4-7 2-5 1-1 1-7 3-1v-8l2-1 1-7 5-9 1-6 8-15 8-16 3-3 2-5h2l2-4 3-3 2-5h2l2-4 13-13 6-3 5-4 5-3 2-2 5-2 6-3 1-1 7-1 1-2 11-1 1-2h20v-3h18l1 2 17 1 1 2 10 1 1 3h8l1 2 5 2 6 3 3 3 6 3 3 3 6 3 14 14 3 6 6 6 8 17 1 1v7l3 1v8l3 1 1 13 2 1v35l-3 1v14l-2 1-1 7-2 2-1 7-2 2-2 5-4 3-1 5-4 4h-2v2h-2v5l-8 8-4-1-2 4-5 5-10 4-3 2h-4l-1 3-7 1-1 2h-14v2l-3 1h-20l-2-1v-3l-3 1h-10l-1-3h-5l-1-3h-8l-4-5-5-2-18-18-8-17-1-1v-7l-3-1v-38h3v-8l2-2 1-4h2l1-6 6-5 5-5 4-5 6-1 2-4 1-1h8l1-3h32l1 2 5 2 6 3 12 12 1 7 2 1v17l-3 1v8l-2 1-2 6h-5l-1-1-1-8-2-2-1-4-6-5-5-2-1-1h-14l-2 2-5 2-7 7h-2v5l-2 7v13l7 15 4 4 12 6 4 1h27l1-3h8v-2l6-1 2-4 7-7h5v-5l3-1 2-4 1-4h2v-8l3-2v-10l3-2v-21l-3-2v-9l-3-4v-5l-2-2-2-5-4-4-2-5-13-13-5-2-18-9-1-1h-9l-2-4-5 1h-25l-3 3h-9l-2 2h-7l-1 3-5 1-1 2-5 1-1 2h-2l-1 3h-5l-2 4-14 14h-2v2h-2v5l-2 2-2 5-3 3h-2v8l-2 1-2 5-1 1v8l-1 3-2 1v47l2 1 1 10 7 13 1 3h2l3 6 12 12 1 2 5 1 1 5-1 1-8 1h-21l-2-3h-7l-4-5-5-2-9-9-8-17-2-5-1 5-8 7-12 12-1 2-6 2-3 4h-8l-1 3h-5l-1 3h-7l-2 3h-39l-3-3h-6l-5-3-14-7-3-3v-2h-5l-7-8-3-2v-5l-3-1v-2h-2l-3-7-3-5-3-7-2-10-3-3v5l-2 2-3 7-3 5-2 5-4 2v5l-14 14-4-1-2 4-5 5-5 2-12 6-5 1-3 1-2 2h-10v2l-7 1h-5l1 3 12 1 2 2 8 1 1 2 7 1 2 2 5 2 12 6 8 7 5 3 10 10 2 5 5 6 2 4 2 5 3 6 2 5 3-4 1-9 2-2 2-5 3-6 1-5 8-7 3-3 2-5h2l2-4 4-1 7-7 5-2 1-1 7-1 1-2 8-1 1-2h41l1 2 7 1 1 3h8l2 2 5 2 3 4 5 2 18 18 3 6h2l2-3 1-7 2-1 1-5 5-4 1-5 8-7 2-2 10-4 1-2h32v4l-7 3-5 6h-2l-1 3-4 3-2 6-4 3-2 5-3 6-1 1-1 7-2 4v7l-1 2h-3l1 2v28l2 1 1 14 2 1 1 8 2 1v8l3 1 4 10 5 6 3 5 18 18 5 2v2l4 2 5 2 1 1 7 1 1 3h8l2 2h10l3 1 2 2h17l1-2 11-1 3 1 1-3 7-1 2-2 5-2 6-3 4-4 5-2 13-13 2-5 6-12 1-5v-3l2-1 1-10v-26l-3-2v-8h-2l-4-11-5-4-1-5-2-1v-2l-3-1v-2h-5l-1-3h-2l-1-2-5-1v-2l-6-1-1-2h-32l-5 3-8 4-5 5-1 4-2 3-2 4-1 7-3 3-1 3 3 1 1 13 12 12 7 1 2 2h10v-2l7-1 6-6 2-5h2v-5l1-1h5l4 4v11l3 1v5l-3 3v8l-2 2-2 5-9 9-10 4-1 2h-32l-3-3h-6l-4-5-4-1-14-14-2-1-1-5-2-1-1-7-2-2-1-7-2-2v-26l2-1 1-10 3-1-1-6 2-3h2l-1-4 6-5 1-5 6-5 2-3h2v-2l6-5 3-3h4v-2l6-2 1-2h8l1-3h11v-3h29l1 3h11l1 2 10 1 5 5 5 2 6 3 13 13 4 1 2 5 7 7 4 10 7 13 1 1 1 10 2 1v17l3 1v17l-3 1v19l-2 2-1 7-3 1v8l-3 1 1 5-1 3-2 1-1 5-5 5v3l-5 4-2 6-5 1-1 4-10 10-4 1-6 5h-2l-5 5-5 2-6 3-2 2-6-1-1 3h-8l-1 3-16 1-1 2h-26l-1-3h-13l-2-1v-2h-10l-2-2-7-1-1-3h-5l-1-3h-5l-1-3h-2l-1-2-5-1-1-3h-2l-1-2-4-1-19-19-1-4-5-5v-4l-3-1-3-4v-4l-3-1v-2h-2l-2-5-7-13-2-8-3-6-1-1-1-7-2-1-1-8-2-1-1-7-2-2v-5h-2l-3-9-3-6-3-3-2-5-5-8-15-15-5-2-5-1-4-2-31-1v2l-6 1v2l-5 2-3 2-4 1-3 7-4 3-2 6-3 3h-2l1 7-4 2 1 15 2 1 1 11 2 2 2 5 10 10 8 1 1 2h16l4-5 4-2 1-3h2v-16l-4-10-5-6 1-1h18l7 8 6 7 4 9 1 1v10l3 1 1 31 2 1v14l3 1v8l3 1 1 10 2 2 2 5 1 1 1 7 5 8 2 1 2 6 4 4 2 5 19 19 6 3 3 3 5 2 6 3 1 1 7 1 2 2 7 1 1 3h41v12l-2 1-1 25 3 1 1 13 2 2 2 5 3 6 3 2 1 6 5-2 1-1 1-17 2-1 1-7 2-2 2-5 1-5 5-4h2l-1-5 7-3 13-13 5-2 5-1h2l3-3h6l1-2h11l1-3h8l1-3 10-1 2-2 10-4 2-2 5-2 4-4h4v-5l5-4 2-5 3-6h3l1 14 2 1v15l-2 1-1 10-3 1v5l-1 1h-5l1 4-7 2-1 3h-2v2l-7 3-1 2h7l2 2 5 2 9 9 2 5 4 3 1 8 2 1v23l-2 2-2 5h-2v2l-2 1-1 4-4 5h-2l-2 4-4 2h-2l-1 2h-27v-3l-5 1-1-1v-6l-4-2-2-2v-5l7-1 1 3 2-3h9l6-5 1-19-4-10-4-4-8-1-1-3h-22l-1 3-6 2-3 4h-4l-1 5-5 5-1 4h-2v11l-3 3 1 14 2 2v6l3 3v6l5 4 2 6 13 13 15 7 5 1v2h34l1-3h12v13l-2 1v7l-2 4h-2l1 9v9l2 2 1 9 7 14 19 19 2 1v24h-22l-6-5-7-8-8-7-2-2-5-2-6-2-1-2h-9l-3-3h-15l-1 3h-10l-4-1-2 4h-6l-2 2h-5l-1-5 2-2 1-11 2-1v-30l-2-2-1-7-7-13-16-16-5-2-6-3-5-1h-5l-5-3h-12l-2 3h-9l-3 3h-2l-1 3-5 1-7 7-2 6h-2v11l-2 1-1 7 3 1v8l3 1 2 6 6 2 1 2h6l3 3 4 1v-3l3-1h5l6-6v-7l3-2-3-2v-8l5-1 9 5 6 7-1 6h3v18l-3 1 1 7-5 4-2 6-3 3-5 1-1 2h-5l-1 3h-8l-1 3h-20l-1-3-6 1-3-3-5-2-11-11-3-6-1-5-3 3-6 9-8 8h-5l-1 3h-8v3h-21l-3-3h-9l-1-5 1-2 8-1 5-5 5-2 4-4 1-5 5-4 2-5 1-1 1-7 3-1-1-6 3-3v-9l3-3v-7l3-2v-9l3-5 6-12 6-7 13-13 5-2 12-6 1-1 10-1 1-2h14l-2-5-16-8-3-2-10-1-2-2h-27l-1 2h-12l-1-40-2-2-1-10-2-2-3-7-3-5-2-5-4-5-3-5-18-18-5-2-5-4-4-2-3-3-5-2-4-2-5-1-6-3-9-3-1-1-9-1-2-1v-2h-16l-2-2-25-1-1-3h-14l-1-2-10-4-11-11-2-1v-7l-3-3 1-5h2v-5l1-1h5l11 11h10l10-5 4-6v-2l2-1v-16l-5-8-9-9-5-2-1-1h-9l-3-3h-9l-3 3-9-1-1 3-5 1-1 2h-2l-1 3h-5l-1 3h-2l-1 3h-2v2l-2 1-1 5h-2v5l-3 1v8l-3 3 1 14 2 2v8l5 9 2 5 13 13 6 3 3 3 17 8 4 2 5 1v2h8l1 2 8 1 1 2 5 1 1 2 7 1 2 2 5 1 1 2 7 1 2 2 5 2v2h2v2l6 1 12 7 6 5v2l4 2 5 3 17 17 1 4 2 1v2l3 1v5l3 1v2l3 1 2 5 1 1v8l3 1 1 7 2 2v10l3 1v50l-2 1-1 10-3 1v8l-2 1-4 10-2 2-2 5-4 5-2 4-24 24-4 1-4 4-12 6-5 2-3 2-5-1-1 3h-11l-1 3h-19l-1 3h-11l-1-3h-23l-1-3h-10l-2-2-5-2-18-9-10-10-4-1-3-3-1-6-4-2-4-4-3-7-6-11-2-5-1-1-1-13-2-1v-32h3v-11l3-1v-5h2l1-6 2-1 1-5 5-4 1-5 8-7 2-2 4-1 5-5h4v-2l6-1 1-3h8l1-3 13-1 1-2h12v3h17l1 2 5 2 12 6 15 15 4 10 2 1v8l3 1v23l-2 1-1 7-2 2-2 5-3 6-2 3h-6l-3 6h-7l-2 3h-11l-1-3h-11l-4-4v-2l-3-1v-3h9l2-4 8-8h2l-1-8 3-1v-6l-3-2v-7l-12-12h-9l-3-3-3-1-1 4h-10l-2 2-5 2-10 10h-2l1 4-2 2-1 10-3 2v12l3 3v8l7 13 9 10 8 7 16 8 1 1h36l6 1 1-3 7-1 2-2 5-2 6-3 19-19 2-5 6-12 1-5 1-3h2v-12h3v-22l-2-1-1-9v-6h-2l-1-6h-2l-1-7-2-2-2-5-1-3-3-1-2-5-22-22-5-2-6-3v-2h-5l-1-3h-5l-2-2h-8l-3-3h-9l-3-3h-26l-4-1-2 4h-12l-2 3h-7l-1 2-5 1-1 2-6 2-6 7-6 2-2 5-8 8-2 3-3-1v-32l3-1v-5l2-1 1-5 8-7 8-8 9-4h2v-2l4-1 4 1-4-4-5-3-17-17-1-4-2-1v-2l-3-1-4-10-2-2-1-10-2-1v-44l2-1 1-7 2-2 2-5 6-12h2l2-4 14-14 5-2 3-3 14-7h5l2-2 7-1-5-2-18-9-7-7-4-1-6-6v-2l-3-1-2-5-7-7-2-5-6-12-1-1-1-7-2-1v-8l-3-1v-11h-2l-1-7-1 2v10l-2 1-1 10-2 2-1 7-2 2-2 5-9 18-23 23-5 2-16 8-4 3 10 4 2 2 7 1 2 2 5 2 6 3 5 5v2l6 1 5 5 1 3h2l1 6h2l8 17 2 3-1 9h3l1 5v28l-2 4-1 7-2 2-1 7-2 1-2 6-4 3-2 6h-2l-1 3-4 3-1 5-3 1-1 3-5 1-4 5-4 3 10 4 15 8 2 6 5 1 2 6 4 4v6l3 3v25l-2 1-8-7-4-5-8-7v-2h-5l-1-3h-2l-1-2-6-2v-2h-8l-1-2h-10l-2-3h-35l-4-1-2 4h-12l-2 3h-7l-1 2-5 1-1 2h-5l-1 3h-5l-1 3h-2l-1 3h-2l-1 3h-4l-7 8-3 1v2h-2v5l-7 7h-2v8l-2 1-2 6h-2v8l-2 1-1 8-2 1-1 33 3 1 1 10 8 15 5 10 13 13 5 2 4 4 5 2 5 1 5 3 7 1 1 2h30l3-3h6l1-2 10-4 8-5 13-13 4-10h2v-8l2-1v-25l-2-2v-6l-6-5-1-5-5-5-5-1-1-2h-6l-3-3h-14l-4 3h-5l-8 8h-2v5l-2 5v14l5 8v2l10 5 5 1-1 4-6 6h-26l-1-3-5-1-10-10-2-1-1-8-2-1-1-8-2-1v-14l2-2 1-10 3-1-1-6 6-7 3-2 1-5 5-5 6-2 4-5h8l1-3h8v-3h33v3h11l1 3h8l4 5 5 2 18 18 2 5 4 3v8l3 1v8l3 1v17l-1 2 4 2v7l-1 4h-2v13l-2 2-1 7-2 2-2 5-6 12-5 8-18 18-5 2-13 7-5 2-4 2h-4l-3 3-9-1-1 3h-47l-1-2-7-1-2-2h-9l-2-3-6-2v-2h-5l-5-3-8-5-9-9-5-1-3-4-2-5-12-12-4-9v-2h-2l-3-3-1-9h-2l-1-10-2-2-1-10-2-1v-41l2-1 1-11 2-1 1-7 2-2 1-7 2-4 6-8 3-7 1-2h2l2-4 8-8h2v-5l6-3 8-7 5-3 7-6 10-5 3-3 5-2 10-5h4l1-2 6-2 1-1h7l1-3h8l1-3h8l1-3 7-1 2-2 10-4 13-7 6-6 5-2 7-7 1-5 2-1 1-5 3-3v-6l2-1 1-25-3-1-1-7-2-4-3-4-1-4-5-5-5-2-3-3v-2h-5l-2-2h-6l-2-4-24 1-2 2-5 2-3 4-6 2-4 4-2 5-1 1v22l11 11h17l7-6 1-5h6l1 5v12l-2 2-2 5-6 6h-5l-1 3-5 2-1 2h-7l-3 3h-8l-4-1-1 3-28 1-3 3h-12l-3 3h-6l-2 3-5-1-5 3-15 8-12 6-6 6-5 2-11 11v4l-5 4-1 5-4 3h-2v5l-2 2-1 7-2 2-2 5-1 1-1 16-3 1v26h-44l-2 4h-6l-9 5-5 3-3 3-1 4h8l1 2 11 1 1 2 7 1 2 2 5 2 6 3v2l4 2 5 2v2l4 2 2 5v2l4 2 8 16v4l2 1 1 8 2 1 1 8 2 1v11l3 1v8l3 1 1 7 2 2 2 5 16 16 5 2v6h-33l-1-2-5-2-11-11-7-11-2 5-5 8-14 14h-6l-1 2h-11l-1 3h-3l-1-2h-12l-2-4-7 1-2-4-4-2-2-4-4-2-5-9v-5l-3-3v-10l3-2v-7l8-7 3-3h5l1 14 2 2 2 5 2 2 5 2 1 1h16v-2l6-1 2-4 5-5 1-4h2v-20l-2-1-1-7-2-2v-5l-3-1v-2l-4-2-10-4v-2l-6-1v-2h-26v3h-10l-2 2-5 2-5 5-4 1-7 7h-2l1 5-4 3h-2v5l-2 2-1 7-2 2-1 13-2 2v6l2 2v16h2l1 2v7l-1 1h-9l-1-2h-6l-3-3h-25l-5-1-1 4h-7l-2 2-5 2-8 5-19 19h-41l-2-2-4-1-2-5-5-5-5-3-6-6-5-1-1-2-5-1-1-2h-9l-3-3h-15l-1 3h-10l-4-1-2 4h-6l-2 2h-5l-1-5 2-2 1-11 2-1v-30l-2-2-1-7-7-13-16-16-5-2-6-3-5-1h-5l-5-3h-12l-2 3h-9l-3 3h-2l-1 3-5 1-7 7-2 6h-2v11l-2 1-1 7 3 1v8l3 1 2 6 6 2 1 2h6l3 3 4 1v-3l3-1h5l6-6v-7l3-2-3-2v-8l5-1 9 5 6 7-1 6h3v18l-3 1 1 7-5 4-2 6-3 3-5 1-1 2h-5l-1 3h-8l-1 3h-20l-1-3-6 1-3-3-5-2-11-11-3-6-1-5-3 3-6 9-8 8h-5l-1 3h-8v3h-21l-3-3h-9l-1-5 1-2 8-1 5-5 5-2 4-4 1-5 5-4 2-5 1-1 1-7 3-1-1-6 3-3v-9l3-3v-7l3-2v-9l3-5 6-12 6-7 13-13 5-2 12-6 1-1 10-1 1-2h14l-2-5-13-7-5-2-1-1-10-1-2-2h-27l-1 2h-12l-1-40-2-2-1-10-2-2-3-7-3-5-2-5-4-5-3-5-18-18-5-2-5-4-4-2-3-3-5-2-4-2-5-1-6-3-9-3-1-1-9-1-2-1v-2h-16l-2-2-25-1-1-3h-14l-1-2-10-4-11-11-2-1v-7l-3-3 1-5h2v-5l1-1h5l11 11h10l10-5 4-6v-2l2-1v-16l-5-8-9-9-5-2-1-1h-9l-3-3h-9l-3 3-9-1-1 3-5 1-1 2h-2l-1 3h-5l-1 3h-2l-1 3h-2v2l-2 1-1 5h-2v5l-3 1v8l-3 3 1 14 2 2v8l5 9 2 5 13 13 6 3 3 3 17 8 4 2 5 1v2h8l1 2 8 1 1 2 5 1 1 2 7 1 2 2 5 1 1 2 7 1 2 2 5 2v2h2v2l6 1 12 7 6 5v2l4 2 5 3 17 17 1 4 2 1v2l3 1v5l3 1v2l3 1 2 5 1 1v8l3 1 1 7 2 2v10l3 1v50l-2 1-1 10-3 1v8l-2 1-4 10-2 2-2 5-4 5-2 4-24 24-4 1-4 4-12 6-5 2-3 2-5-1-1 3h-11l-1 3h-19l-1 3h-11l-1-3h-23l-1-3h-10l-2-2-5-2-18-9-10-10-4-1-3-3-1-6-4-2-4-4-3-7-6-11-2-5-1-1-1-13-2-1v-32h3v-11l3-1v-5h2l1-6 2-1 1-5 5-4 1-5 8-7 2-2 4-1 5-5h4v-2l6-1 1-3h8l1-3 13-1 1-2h12v3h17l1 2 5 2 12 6 15 15 4 10 2 1v8l3 1v23l-2 1-1 7-2 2-2 5-3 6-2 3h-6l-3 6h-7l-2 3h-11l-1-3h-11l-4-4v-2l-3-1v-3h9l2-4 8-8h2l-1-8 3-1v-6l-3-2v-7l-12-12h-9l-3-3-3-1-1 4h-10l-2 2-5 2-10 10h-2l1 4-2 2-1 10-3 2v12l3 3v8l7 13 9 10 8 7 16 8 1 1h40l2 1 1-3 7-1 2-2 5-2 6-3 19-19 2-5 6-12 1-5 1-3h2v-12h3v-22l-2-1-1-9v-6h-2l-1-6h-2l-1-7-2-2-2-5-1-3-3-1-2-5-22-22-5-2-6-3v-2h-5l-1-3h-5l-2-2h-8l-3-3h-9l-3-3h-26l-4-1-2 4h-12l-2 3h-7l-1 2-5 1-1 2-6 2-6 7-6 2-2 5-8 8-2 3-3-1v-32l3-1v-5l2-1 1-5 8-7 8-8 9-4h2v-2l4-1 4 1-4-4-5-3-17-17-1-4-2-1v-2l-3-1-4-10-2-2-1-10-2-1v-44l2-1 1-7 2-2 2-5 6-12h2l2-4 14-14 5-2 3-3 14-7h5l2-2 7-1-5-2-18-9-7-7-4-1-6-6v-2l-3-1-2-5-7-7-2-5-6-12-1-1-1-7-2-1v-8l-3-1v-11h-2l-1-7-1 2v10l-2 1-1 10-2 2-1 7-2 2-2 5-9 18-23 23-5 2-16 8-4 3 10 4 2 2 7 1 2 2 5 2 6 3 5 5v2l6 1 5 5 1 3h2l1 6h2l8 17 2 3-1 9h3l1 5v28l-2 4-1 7-2 2-1 7-2 1-2 6-4 3-2 6h-2l-1 3-4 3-1 5-3 1-1 3-5 1-4 5-4 3 10 4 15 8 2 6 5 1 2 6 4 4v6l3 3v25l-2 1-8-7-4-5-8-7v-2h-5l-1-3h-2l-1-2-6-2v-2h-8l-1-2h-10l-2-3h-35l-4-1-2 4h-12l-2 3h-7l-1 2-5 1-1 2h-5l-1 3h-5l-1 3h-2l-1 3h-2l-1 3h-4l-7 8-3 1v2h-2v5l-7 7h-2v8l-2 1-2 6h-2v8l-2 1-1 8-2 1-1 33 3 1 1 10 8 15 5 10 13 13 5 2 4 4 5 2 5 1 5 3 7 1 1 2h30l3-3h6l1-2 10-4 8-5 13-13 4-10h2v-8l2-1v-25l-2-2v-6l-6-5-1-5-5-5-5-1-1-2h-6l-3-3h-14l-4 3h-5l-8 8h-2v5l-2 5v14l5 8v2l10 5 5 1-1 4-6 6h-26l-1-3-5-1-10-10-2-1-1-8-2-1-1-8-2-1v-14l2-2 1-10 3-1-1-6 6-7 3-2 1-5 5-5 6-2 4-5h8l1-3h8v-3h33v3h11l1 3h8l4 5 5 2 18 18 2 5 4 3v8l3 1v8l3 1v17l-1 2 4 2v7l-1 4h-2v13l-2 2-1 7-2 2-2 5-6 12-5 8-18 18-5 2-13 7-5 2-4 2h-4l-3 3-9-1-1 3h-47l-1-2-7-1-2-2h-9l-2-3-6-2v-2h-5l-5-3-8-5-9-9-5-1-3-4-2-5-12-12-4-9v-2h-2l-3-3-1-9h-2l-1-10-2-2-1-10-2-1v-41l2-1 1-11 2-1 1-7 2-2 1-7 2-4 6-8 3-7 1-2h2l2-4 8-8h2v-5l6-3 8-7 5-3 7-6 10-5 3-3 5-2 10-5h4l1-2 6-2 1-1h7l1-3h8l1-3h8l1-3 7-1 2-2 10-4 13-7 6-6 5-2 7-7 1-5 2-1 1-5 3-3v-6l2-1 1-25-3-1-1-7-2-4-3-4-1-4-5-5-5-2-3-3v-2h-5l-2-2h-6l-2-4-24 1-2 2-5 2-3 4-6 2-4 4-2 5-1 1v22l11 11h17l7-6 1-5h6l1 5v12l-2 2-2 5-6 6h-5l-1 3-5 2-1 2h-7l-3 3h-8l-4-1-1 3-28 1-3 3h-12l-3 3h-6l-2 3-5-1-5 3-15 8-12 6-6 6-5 2-11 11v4l-5 4-1 5-4 3h-2v5l-2 2-1 7-2 2-2 5-1 1-1 16-3 1v26h-44l-2 4h-6l-9 5-5 3-3 3-1 4h8l1 2 11 1 1 2 7 1 2 2 5 2 6 3v2l4 2 5 2v2l4 2 2 5v2l4 2 8 16v4l2 1 1 8 2 1 1 8 2 1v11l3 1v8l3 1 1 7 2 2 2 5 16 16 5 2v6h-33l-1-2-5-2-11-11-7-11-2 5-5 8-14 14h-6l-1 2h-11l-1 3h-3l-1-2h-12l-2-4-7 1-2-4-4-2-2-4-4-2-5-9v-5l-3-3v-10l3-2v-7l8-7 3-3h5l1 14 2 2 2 5 2 2 5 2 1 1h16v-2l6-1 2-4 5-5 1-4h2v-20l-2-1-1-7-2-2v-5l-3-1v-2l-4-2-10-4v-2l-6-1v-2h-26v3h-10l-2 2-5 2-5 5-4 1-7 7h-2l1 5-5 4-2 5-1 1-1 7-2 2-1 13-2 2v6l2 2v16h2l1 2v7l-1 1h-9l-1-2h-6l-3-3h-25l-5-1-1 4h-7l-5 3-9 5-20 20h-20v-24l8-7 5-5h4v-5l5-5 6-12v-6l2-1v-22l-2-2v-9l-3-4-1-10 2-1 10 2v2l36-1 2-2 7-1 2-2 5-2 6-3 13-13 1-5 5-4v-7l3-3v-6l2-1v-16l-2-1v-11l-3-1-1-5-5-4v-5l-7-2-1-3h-5l-1-3-25 1-2 2-5 2-4 4-3 9v15l2 2 2 5 3 2h5l4 3 7 1-1 6-6 6h-2l-1 3-22 1-2-1v-3l-7 1-2-4-4-2-2-4-3-1v-2h-2l-4-10-1-4-1-1v-20l2-1 1-8h2l1-6 8-7 5-5 10-4v-2l-5-2-15-15-2-5-2-6v-2l-2-1v-15l2-2v-9l1-2 4 2 3 5 6 7v3l5 2 7 7 5 2 1 1 7 1 1 3h11l1 3h8l2 2 10 1 1 2 7 1 15 8 3 1v2l4 2 16 16 3 6 1 1 1 7 2 1 1 8 2 1 1 14 2 2 5-1 4-7 2-5 2-6 2-1 1-13 2-2v-27l-2-1v-9h12l1 3 4-1 3-3h20l2-2 7-1 1-2 8-1 2-2 5-2 6-3 4-4 7-4 4-5 5-4 2-3h2l4-8 5-6 9-17 5-11 1-1 1-7 2-2 1-7h2v-20l3-2v-25l3-2v-12l3-1 2-6 1-5 8-7 5-6h17l1 1v6h-6v5l-3 1 1 18 2 3v4l6 1 3 4h19l2-2 5-2 9-9 2-6 2-1v-7l3-2v-16l-3-1v-9l-3-4v-4l-4-2-3-6-4-2-8-6-10-5-3-1h-27l-2 3h-6l-4 3-4 2-19 19-2 5-6 12-2 5-1 1-1 7-3 1v8l-2 1-1 7-2 2-1 5-2 1-1 7-2 2-1 7-2 2-2 5h-2v5l-3 1v2l-2 2-2 5-3 6h-2v2h-2v5l-8 7-1 5-8 7-5 6-5 1-4 5h-2v2l-5 1-1 2-6 2-4 5-7-1-1 3h-5l-1 3-10 1-1 2h-17l-1 3h-23l-1-3h-16l-2-2-7-1-1-3h-8l-1-2-6-2v-2h-2l-1-2-5-1-1-2-5-2-6-5-1-2-5-1v-5l-5-1-4-4-2-5-6-6-8-16-5-11-1-4-1-1-1-10-2-1-1-23-2-1v-5l2-3 1-21 2-1 1-11 2-1v-7l5-4 6-12 9-9 2-5 5-4 4-2 6-6 5-2 12-6 1-1h7l1-3h8l1-3h28l1 3h14l1 3h8l4 5 5 1 4 5 5 2 12 12 1 4 2 1 2 6 4 3v8l3 1 1 10 2 1v26l-3 1v8l-3 1v8l-4 3h-2v5l-16 16-4 1-3 3-6-1-1 3h-29l-1-3h-10l-11-11-2-1-2-6-1-1-1-7-2-1v-9l2-1 1-10 3-1 1-3h3l5 9 6 6v2h7l3 3h10l10-5 3-3 4-2v-3l3-2v-10l3-2v-7h-3v-6l-3-4-1-4-2-3-2-4-4-4-4-1-4-2-4-3h-29l-2 3h-7l-1 2-7 3-4 4h-3l-1 2h-2l-1 3-4 3-2 5-6 12-1 1-1 8-2 1v35l2 2 1 7 8 15 3 5 15 15 12 6 5 2 5 1 4 2v2h11l2 2h23l1-2 12-1 2 1 1-3 7-1 2-2 5-2 6-3 4-4 5-2 19-19 2-5 4-4 2-5 6-12 1-5v-5l3-1v-14l2-1 1-30-3-2v-10l-3-2v-8h-2l-4-10-5-8-9-10-7-6-5-2 1-3h29l1 3h7l2 2 5 2 9 9 2 5 4 3 1 5 2 1 1 8 4 2 4-5h2l-1-4 16-16 5-2 6-2 4-5 7-1 2-2 7-1 1-2h41l1 2 7 1 1 3h8l2 2 5 2 3 3v2h2l1 2 5 1 4 5 2 1 1 5 2 1v2l4 2 2 2 2 5 3 6 1 1 1 7 2 2 1 7 2 3 10-19v-3l8-7 3-3 1-5 8-7 4-1 7-7 5-2 6-3 5-2 1-2h8l1-3 10-1 2-2 10-1 1-3h-11l-1-3h-11l-1-2-6-2v-2h-7l-2-2-5-2-3-3v-2h-5l-4-4v-2l-4 1-11-11v-2h-2l-3-6-3-3-8-17-2-5-3 3-1 9-8 15-2 5h-2v2l-2 2-1 4-5 4-3 3h-3l-1 2h-2l-1 3h-2l-1 3h-5v2l-4 4h-8l-1 3-7-1-2 4h-35l-3-1v-3l-3 1h-7l-5-3-8-4v-2l-6-1v-2l-5-1-19-19-2-1-1-5-2 5-6 12-4 5-2 4-6 6-10 4-2 2h-4v2l-7 1h-21l-3-1v-6l6-2 14-14 2-5h2l2-4 1-4h2l1-6h2v-11l3-1v-20l3-2-1-6-2-1v-19l-3-2v-11l-3-1v-5h-2l-1-7-2-2-2-5-1-3-3-1-2-5-22-22-5-2-12-6-1-1-7-1-1-3h-10l-2-2h-30l-3 3-9-1-1 3-5 1-1 2h-6l-9 9-4 1-10 10h-2v5l-4 4h-2v5l-2 2-1 7-2 2-1 10-2 1v21l2 2 1 10 2 1 1 8 2 2 2 5 4 4v4l3 1v2h2v2l6 2 3 3 12 5v2l34-1 8-5 4-3 2-1v-3l5-4 3-6v-22l-5-8-6-6-5-2-1-1h-16v2l-6 2-4 4-2 5-1 1-1 8-1 1h-5l-2-6-2-1v-8l-3-1v-17l3-1-1-6 14-14 10-4 1-2h32l1 3h7l2 2 5 2 18 18 2 5 1 5h2l1 2v7l3 1v37l-3 1v8l-2 1-2 5-6 12-18 18-5 2-6 3-5 2-1 2h-7l-1 3h-15v2l-8 1h-12l-2-3h-13l-1-3h-7l-2-2-5-2-12-6-6-6v-2h-5l-1-3-3-1v-2l-3-1v-5l-4-2-5-5v-5l-4-2-3-6-2-3v-5l-2-1-1-8-2-1-1-11 1-3-3-1v-35l2-1 1-13 3-1-1-6 3-4 1-7 5-10 5-5 1-5 5-4 1-5 8-7 9-9h4l2-4 3-2h4l2-4 1-1h5l1-3 7-1 2-2 5-2 1-1h11v-3h20l1-3h12v3h23l1 2 10 1 2 2 5 2v2l6-1 2 1v2l6 1 3 3v2l5 1 4 3v2l5 1 19 19v4h2l7 9v3l4 2 8 17 7 13 1 1 1 7 2 2 2 5 1 1 1 7 2 2v7h2l3 9 13 28 17 17 6 3 8 2v2h32v-2l12-6 13-13 2-5 4-9v-22l-4-9-3-6-7-7-5-2-1-1h-19l-4 5h-4l-2 5-1 1v15l2 2 1 4 5 2 3 2-1 4-4 3h-15l-17-17v-6l-3-3v-7h-2l-1-22-2-1-1-23-2-1v-11l-3-1-1-10-2-2-4-10-8-15-6-10-7-8-14-14-4-1-4-4-5-2-12-6-1-1-7-1-2-2h-15l-2-4h-16l-1 4-9-1v-21l2-1 1-7-3-1-1-19-2-1-1-8-2-1-2-6-5-5-4-3 1 7-2 2-1 10-2 2-1 7-3 1v5l-3 1v5l-5 4-2 6h-2l-1 3h-4l-2 3h-2l-2 4-6 2-1 2-5 1-2 3-7-1-2 4h-6l-3 3h-6l-3 3h-9l-1 2-8 1-1 2h-8l-1 3h-5l-2 4-14 14-5 11h-3l-1-8-2-1v-27l2-1v-7l5-4h2l-1-5 5-4 5-2 4-4h3l1-2-7-2-2-2-5-2-9-9-4-9v-2h-2v-29l2-2 4-10 13-13 7 1 2-4h21l4 4v2h6l3 7 1 1v8h-4l-2-2h-8l-2 2-7 3-2 6-1 1v14l6 10 5 3 3 2 25 1 1-3 5-2 14-14v-6l3-1v-11-3l-1-17-2-2-4-10-4-4-2-5-11-11-4-1-10-5-5-1-1-1h-36l-1 2h-7l-2 3h-3v-10l2-1v-10l2-1 1-33-3-5-1-5-4-4-2-5-8-7 1-4-5-1-6-6v-47l8-7 4-5 5-4 8-15 2-4 1-36-3-4v-5l-2-1v-10l7 1v2h11v3l28-1 2-2 7-1 1-2 8-1 7-8 6-2 2-6 7-6 1-5 3-3v-6l2-1 1-31h-2l-3-7-1-5h-2l-4-4v-2h-2v-2h-5l-1-3h-8l-1-3-13 1-1 2h-7l-9 9-3 7v11l2 2 2 5 5 5h14l3 1v8l-4 2-2 4-4 4h-5l-1 3-16 1-2-4-7 1-2-4-4 1-2-4-3-1v-2h-2l-3-3-1-6h-2l-1-7-2-2v-29l2-1 1-5 5-4 1-5 5-1 5-5 6-3h4v-2l-5-2-5-3-14-14v-6l-2-1v-27l2-1v-7l1-2 4 2 3 5 5 9 10 10 11 5 1 1 7 1 1 3h8l1 3 6-1 5 1 1 2 8 1 2 2h7l15 8 3 3 5 2v2l3 1v2l4 2 5 6 11 22 1 1v8l3 4v7l-1 3 7-6 2-5 4-4 1-8 2-1 1-49 37-1 5-3h7l2-2 5-2 13-7 5-2 7-7h4l2-4h2l1-3 3-2 1-5 7-6 1-5 5-4 6-12 2-5 1-1 1-7 2-2 1-7 2-2 1-10h2v-26l3-2v-19l3-1v-10l3-2v-4l3-2v-4l8-7 10-4 1-2h7l2 1v2l6 1v5l-7 2v2h-2v5l-3 1 1 13 2 2 2 5 4 4 6 3h13l2-2 5-2 6-3 4-5 3-5v-4l2-1 1-16v-13h-2l-2-5-6-12-5-5-5-2v-2l-3-1v-2l-3 1-4-3h-6l-2-3h-18l-2 3-7-1-2 4-7-1-2 4-7 6-3-1 1 4-5 5h-2v2l-2 1-1 5-3 1v2h-2v5l-2 2-2 5-1 1-1 7-3 1v8l-2 1-1 7-2 2-2 5-1 1-1 7-2 2-2 5-1 1-1 7-3 5-5 9-2 5h-2v2l-2 1-1 5-3 3h-2v5l-4 4h-2l-1 3-4 3-2 6-5 4-1 2-5 1-8 8h-3l-5 5-10 4-2 3h-6l-2 2h-5l-1 3h-13l-1 3h-46l-2-2-10-1-1-3h-8l-1-3h-5l-1-3h-5l-1-2-6-2v-2h-2l-1-2-4-1-8-8-4-1-7-7-2-5-7-7-2-5-3-2-3-7-1-4-2-4-1-6h-2l-1-7-2-2-1-16-2-1v-32l2-2 1-16 2-1 1-7 8-15 3-5 2-2 2-5 18-18 5-2 4-4 5-2 6-3 1-1h7l1-3h11l1-3h31l1 3h14l1 2 5 2 12 6 21 21 2 5 3 6 1 5h2l1 2v7l3 1v37l-3 1v8l-2 1-2 6-5 2v5l-13 13-4 1-1 2-5 1-1 2h-11l-1 3h-20l-2-3h-10l-4-4-5-3-6-6-5-11-1-1v-20h3l-1-6 5-6h5l1 1v8l4 2 5 5v2h2l1 2h6l2 1v2h7l3-3h6l8-8 1-5 2-1v-22l-3-6-2-3-2-4-7-7-5-1-1-2h-9l-3-3h-14l-2 3h-7l-3 3h-6l-5 6-5 1-3 4h-2l-1 3-4 3-2 5-6 12-1 1-1 10-2 2-1 24 3 1 1 10 2 2 4 10 5 8 3 3 2 5 6 3 7 7 5 2 3 3v2l6-1 3 2v2l6-1 3 3 17 1 1 2h9l1-2 15-1 2 1 1-3h8l1-3 10-4 2-2 5-2 4-4 5-2 13-13 2-5 4-4 2-5 6-12 2-8h2v-8l3-1v-51l-3-2v-6l-8-15-1-5h-2l-7-8-8-7v-2h-2l-2-2-5-2v-2l2-1 10-1 4-2 9 1v2h10l2 2 5 2 6 3 15 15 2 5 1 1 1 7 2 1v5h2l1-6 22-22 17-8 2-2 7-1 2-2h16l1-3h11l4 1v2h13l2 2 7 1 2 2 5 2 6 3v2l4 2 5 3 5 4 4 5 5 5 9 18 3 5 1 7 2 3v4h2l-1-5 5-10 1-5 6-5v-4l8-7 15-15 4-1 24-12 1-1h10l1-3 10-1 2-2-7-2-1-2h-10l-1-3h-7l-4-3h-5l-5-5-5-2-6-3-20-20-4-5-6-10-5-9-2-5h-3v11l-2 2-1 7-2 1-2 6h-2v2l-2 1v4l-8 7-10 10-1 2h-2l-1 3h-5l-1 3-5 1-1 2h-8l-1 3h-6l-2 2-4 1h-30l-3-3h-9l-1-3h-5l-2-2-5-2v-2h-5l-1-3-3-1v-2h-5l-4-5-3-2v-4l-3-2v-2l-3-1v-2l-3-1v-2h-2v-2l-4 3-1 7-2 4-6 7-3 4-1 4-6 2-4 4-5 2-9 4h-21l-3-2 1-5 5-2 11-11 2-5h2l1-3h2v-5l2-2 2-5 2-8h2v-14l2-1 1-28-3-1v-14l-3-1v-9l-2-2-2-5-9-18-1-3-3-1v-5l-4 1-2-1-2-6-3-2-4-2-6-6-5-2-18-9-1-1-10-1-1-3-9 1h-24l-1 2-11 1-1 2-7 1-2 2-5 2-6 3-21 21h-2v5l-2 2-1 7-3 1v8l-3 1 1 33 2 1 1 10 4 8 4 6v2h2l7 8 5 4v2l6 1v2l6 1v2h7l2 1v2l22-1 1-2h8v-2l7-3 9-9 1-5 2-1v-28l-2-3-2-4-4-4h-6l-3-3h-15l-1 2h-5l-1 3-7 6-2 5-3 4-3-1-1-5-2-1-1-7-2-2v-8l3-1-1-10 6-5 1-5 6-2 5-5h3l1-2h11v-3h18l1 3h8l1 2 10 4 19 19 2 5 1 5h2l1 2 1 9 2 2v25l-3 1v11l-2 1-2 5-6 12-3 3h-2l1 4-11 11-5 2-3 4-6 2-5 2-1 2h-10l-2 3h-43l-1-3h-7l-2-2-7-1-2-2-5-2-3-3v-2h-5l-21-21-6-9-8-17-2-7v-4l-2-1-1-22-2-2v-8l3-1v-2h-3l1-4h2v-20l2-1 1-7 2-2 1-7 9-18h2l2-4 4-2v-5l5-4 2-3h2l1-3 8-7 2-2h4l2-4 5-4 11-6 5-2 1-1 10-1 2-2 13-1 1-2h38l1 3h11l1 2 8 1 1 2 7 1 2 2 10 4 8 5 5 3 22 22 1 5 4 2 8 11 8 15 5 10 1 1 1 7 2 2 2 5 3 6 1 1v7h2l1 2v7h2l3 9 11 23 3 6 10 10 6 3 3 3 9 4 5 1v2l25-1 2-2h5l1-3 7-1 14-14 2-5 1-5 3-2v-10l3-3v-10l-4-10-3-6-5-5-1-3-4-1v-2l-5-1-1-1-8-1-3-3v3h-6l-3 3-5 1-2 2-2 5-1 4v15l8 8v5l-2 1h-13l-1-4-4 1-10-10-3-6-1-5v-3h-2l-1-10v-2h-2l-1-5v-23l-2-1-1-14-2-1-1-8 1-3-3-1-1-7-2-2-1-7-8-15-6-10-7-8-19-19-5-2-4-4-7-1-2-2-5-2-1-1-7-1-2-2-13-1-1-3h-29v-6h2l1-32-3-1-1-10-2-2-4-10-5-8-5-4 1 2v7l-2 3-1 7-2 2-1 7-2 2-2 5-6 12-3 3h-2l-1 3h-2l-2 4-5 5h-4l-1 2h-2l-2 4h-6l-2 2h-5l-2 4h-9l-3 3h-6l-2 2-7 1-1 2h-11l-1 3h-5l-1 3-5 2-6 3-6 6h-2v5l-5 4-2 6h-3l-1-9v-2l-2-1v-18l2-1v-7l6-5v-4l8-7 3-3 5-2 2-4-8-1-1-2-5-2-10-10-1-4-2-7v-4l-2-1v-18l2-1 1-7 2-2 2-5 11-11 14-7h8l3 3h9l7 7 3 6 1 3-14 1-2 2-5 2-5 5v21l5 4v5h5l1 2 5 1 1 2 19 1 1-3h8l2-4 11-11 2-5 2-3v-8l3-1-1-16-2-1v-7l-2-5-6-12-18-18-10-4-4-1-1-1-39-1-1 3h-12v-3l2-2v-7l3-2v-13l3-2-1-15-2-1v-9l-8-15-3-6-9-9-5-2-3-3zm1019 24-12 12-1 5-5 4-2 5-4 8v8l-3 3v14l2 2 1 13 3 1v8l3 1v4l-10-1-1-3h-15l-2-2h-10l-1 2-14 1-1 2h-6l-7 6-4 2-5 1-1 5-11 11-1 4-2 3-3 9v5l-3 4 1 14 2 1v7l1 4h2l1 5 5 6 8 7 1 2 8 1 1 2h19v-2l6-1v-2l7-2 2-5-1-2h3l1-6v-5l2-1v-2l-2-2v-6l-7-7h-5l-1-3h-14l3-4v-5l10-5v-2l7 1 2-3h6l5 3h6v2l7 3 5 6 5 4 2 5 1 1 1 8h3v21l-3 1v8l-5 2-2 6-6 6-10 4-7 3 4 2 9 5 7 7 2 5 6 12 1 1 1 17-3 1-1 11-2-1-1-5-5-4-2-5-8-8-5-2-12-6-1-1-7-1-2-2-10-1-1-2h-9l-3-3h-5l-1-3h-6l-3-3-4-1-4-2-10-6-7-7-1-2h-2l-1-3h-2l-1-5-4-7-2-5-1-1-1-7-3-1v-17l-4-3-9 9-2 5-1 1-1 7-2 2v8h-3v31l2 1 1 9h-29l-2 3h-13l-3 3h-6l-2 3h-6l-2 2-5 2-3 3v2l-4-1-28 28-1 4-4 4-2 5-6 12-1 1-1 7-2 2-1 7-2 1-1 8-2 1v17l-3 1-1 28-2 1v11l-3 1v6l-3 4-2 4-8 8-5 1v3l-8-1h-6l-1-6 4-2 5-6v-17l-2-5-7-7-14-1-3-1v2l-7-1-19 19v9l-3 2v13l3 1v10l2 2 2 5 3 6 14 14 6 3 3 1h4l1 2h26l1-2 7-1 2-2 5-2 6-3 14-14-1-4 4-2 2-2v-5l3-1 1-7 2-2 2-5 3-6 1-1 1-10 2-1v-5l3-1v-8l3-1 1-7 8-15 6-13 5-6 2-5 7-7 1-4 20-20 6-3 3-3 17-8 10-5h7l1-3h11l1-2 41-1 1 3 10 1 2 2h7v2l17 8 8 5 5 3 8 7 11 11 3 6 4 2v5l3 1v2h2l2 6 3 6 1 1 1 11 2 1 1 8h3l-1 56-2 1v11l-6 3v7l-3 4-3 6-1 3-5 1-1 5-14 14-5 4h-3l-4 5-5 2-6 2-1 2h-6l-2 3-20 1-2 2h-7l-3-3h-17l-2-3h-7l-1-2-5-1-4-5-5-2-22-22h-2v-7l-2-2-2-6h-2v-10l-2-2-1-26h3l1-11 2-1 1-5 2-1v-5l4-2v-2l3-1 7-8 5-4 3-4h7l1-2 11-1v-3l12 1 1 2 13 1 2 2 5 2 11 11 2 5h2v8l3 1-2 6-1 1v10l-3 1v6l-3-1-3-4-1-4-8-7-1-2-5-1-1-2h-18l-5 5-6 2v2h-2l-1 5-2 3v8l-3 2v4h3v11l2 2 2 5 15 15h9l2 2h22l1-2 8-1v-2l5-1 8-5 16-16 2-5 1-5h2l1-5v-3l2-1 1-10v-26l-3-4v-5l-3-4v-5l-2-2-2-5-23-23-5-2-6-3-1-1-7-1-2-2-7-1-1-2h-36l-3 3h-9l-1 3h-5l-1 3h-8l-4 5-5 1-4 5-5 1-6 7-2 1-2 6-7 6-2 6-4 3v8l-3 1v5l-3 1v11l-3 1v12l-3 4v25l3 1v14l3 1v8l3 1v5l2 1 2 5 4 4 2 5 9 9 2 3h5v5l-7 1h-17l-1-3h-7l-1-2-5-2-14-14-2-5-4-7-1-7-3-1-3 2v2l-4 2-4 4-1 5-5 4-2 2-4 1v2l-4 2-2 3-5 1-1 2-5 1-1 2h-6l-4 3h-8l-5 3h-27v-2l-4-1h-6l-2-2-7-1-1-2-6-2-3-4-5-1-7-8-9-9-2-1-1-5-5-4v-6l-4-2 1-7-2-2-2-5-2-3h-2l-2 6-3 6-4 5-2 4-2 5-23 23-10 4-13 7-5 1-4 2v2l-7-1-1 3h-14l-1 2 7 3 11 1v2h11l1 3 5 2 24 12 19 19 2 5 4 4 2 5 3 6 1 1 1 7 2 1 2-6 1-1 1-7 2-2v-6l6-6 1-4 2-4 6-7 10-10 4-1 4-4 10-4 2-2 7-1 2-2 15-1 4-2h10v2l16 1 2 2 7 1 2 2 5 2 11 6 13 13h2l1 3h2v2l3 3h2l1 6 3-1 2-3v-10l4-2 2-4v-2l8-7 5-5 5-2 6-3 1-1 10-1v-2h13v2l8 1 1 2-4 2-12 12v2l-3 1v2l-4 2-9 18-1 1v8l-3 1-1 19-2 2v8l2 2 1 19 3 1v8l3 1v8l2 1 4 10 5 8 3 4 3 5 13 13 5 1v2l7 4 9 5 4 1 1 2h8l1 3h17l1 3h12l1-3h17l1-2 7-1 2-2 5-2 6-3 7-7 5-2 5-5v-5l4-2 2-2v-5l4-2 2-2-1-7 4-2-1-10 4-2v-23l-3-2v-9l-8-15-3-6-10-10-5-1-1-2h-2l-1-3h-5l-1-3h-10l-2-3h-15l-2 3h-9l-5 5-5 2-6 5-1 5-2 3-2 4-1 9v10l4 9 6 6 5 2 5 1 4 2 4 1 1-3h7l13-13 1-7h5l1 5 2 1 1 5 2 1v19l-2 2-2 5-3 6-5 5-5 1-1 2-5 1-2 3h-6l-1 2h-20l-3-3-8 1-2-3-5-1-1-2-5-2-11-11-2-5h-2l-1-3h-2v-5l-2-2-1-10-2-1-1-35 3-1 1-10 5-4v-5l3-1v-5l4-2 7-8 8-7 1-3 6-2 14-7 10-1v-3l35 1 1 2h11l1 3 7 1 2 2 5 2 6 3 4 4 4 1 16 16 3 6 4 4 2 5 6 12 1 1 1 7 3 1v17l2 1 1 32-3 1-1 13-2 1v11l-3 1-4 10-7 13-2 5-7 7-1 5-5 1-14 14h-4l-4 5-5 2-12 6v2h-8l-1 2-13 1-1 3-47-1-1-2-7-1-2-2-7-1-2-2-7-1-1-2-5-1-1-2-5-1-1-2h-2l-1-3-5-1-7-8h-2l-1-3h-5l-1-3h-2v-5l-11-11-2-5h-2v-2h-2l-1-6-3-3h-2l-1-5-4-7-2-5-1-1-1-7-2-2-2-5-1-1-1-7-3-1v-8l-2-1-2-6h-2v-8l-2-1-1-7-5-8-1-5-5-5-2-4-6-6-2-5-3-3-4-1-4-2-5-4-1-2h-10l-3-3h-17l-2 4-7-1-1 3-6 1-2 2h-3l-4 5-5 4-1 5-5 4-1 8-2 1v27l2 2 2 5 3 6 5 5 12 6h13v-2l6-1 7-8 2-4v-12l-2-2-2-5-3-3h-5l1-6 7-1 2-2 5 1 4 2 5 1 8 8 2 5 3 6 1 1 1 10 3 1v20l2 1 1 25 2 1 1 11 2 1 1 8 2 1 1 7 2 2 4 10 5 8 3 1v5l8 8 2 5 8 8 6 3 6 6 17 8 6 3 1 1 10 1 1 2h38l-1 23-3 4 3 3 1 19 2 2 1 7 2 2 2 5 4 2 2 4 4 2-1-8 3-1v-11l3-1 1-7 2-2 2-5 3-6 2-5 12-12 5-2 4-4 5-2 6-3 4-1h6l1-3h8l1-3h11l1-2 8-1 1-2 7-1 2-2 5-2 6-3 11-11 2-5 5-10h3v9l3 1-1 26-2 1v7l-15 15-7 3-1 3 5 2 6 3 6 2 1 5 6 6h2v8l3 1-1 26-2 1v8l-3 1v4l-8 7-1 3h-5l-2 3h-7l-2 3h-14v-3h-7l-10-10v-8l17-1 8-8 1-4v-9l-4-10-8-8-8-1-1-2h-13l-1 3-6-1-3 3-5 1-4 5-5 4 1 4-3 1-1 6h-2l-1 17v11l3 5v6l2 2 2 5 3 3h2v5l6 6 6 3 8 7 6-1 1 3h8v3h28l1-3h11l1-2 6-1v10l-3 1v7l-3 1v36l2 2 2 5 6 12 17 17 5-1 6-6v-2h2l4-5 2-1v-2h2l8-17 1-1 1-36-4-2 1-7-3-1v-10l7 1v2h11v3h28l1-3h8l1-3h8l1-3 4-2 2-3 5-1 3-3v-4l8-7 4-10-1-4 3-1v-31h-2l-1-6-3-6h-2l-2-4h-2v-2h-2v-2l-5-1-1-2-8-1-1-2h-13l-1 3-7-1-1 3-4 2-5 5-2 5-1 4v9l2 2 2 5 6 6h17l-1 8-9 9-5 1-1 2-18 1v-3h-7l-2-3-5-1-4-5h-2l-1-3h-2l-1-6h-2v-7l-2-2-1-28 3-2v-4l6-5v-4l6-2v-2l4-2 10-4v-2l-9-5-14-14v-6l-3-1v-27l3-1v-9l5 4 6 12 11 11 5 2 6 3 1 1 7 1 1 2h8l1 3h11l1 3h8l1 3h8l15 8 3 3 5 1v2l8 7 3 4 11 22 1 1v8l3 4v10l4-2 4-4 2-5 4-4v-8l3-1v-49h37l5-3h7l2-2 5-2 13-7 5-2 7-7 4-1 5-6 4-3v-4l8-7 1-3-1-2 4-2 3-5 5-9 2-5 1-1 1-7 2-2 1-7 2-2v-10h2l1-6v-19l3-3v-15l-1-4 4-1v-10l3-2 1-4 2-4-1-2 4-2 4-4 5-2 6-3v-2l9 1v2l6 1-1 5-6 2v2h-2l-1 5-2 1v13l2 2 2 5 5 5 6 3h13l2-2 5-2 6-3 5-6 3-5 1-4 1-1 1-16v-11l-1-2h-2l-1-5-6-12-6-6-4-1-4-5-5-1-4-2h-4l-2-3h-18l-2 3h-7l-3 3h-6l-7 8-5 1-1 5-5 4v2l-3 1-1 5-2 1v2h-2l-2 6-3 6-1 1-1 7-2 1v8l-3 1-1 7-2 2-2 5-1 1-1 7-2 2-2 5-1 1-1 7-3 5-5 9-1 4-2 1v2l-3 1v4l-3 2v2h-2v5l-4 2v2h-2l-5 5-2 6-6 5v2l-4-1-9 9-4 1v2l-4 2-5 2-6 3-1 2h-6l-2 2-5 1-1 2-13 1-1 2h-46l-2-2-10-1-1-2-8-1-1-2-5-1-1-2h-5l-1-3-6-1v-2h-2l-1-3-4-1-8-8-4-1-6-6-2-5-7-7-2-5-4-3-1-5-2-2v-5l-2-2-2-6h-2v-7l-2-2-1-16-3-1 1-32 2-2v-15l3-2 1-7 8-15 3-5 2-2 2-5 17-17 5-2 4-4 5-2 6-3 1-1 7-1 1-2 11-1 1-2h31l1 2h14l1 3 5 2 12 6 20 20 2 5 3 6 2 5h2l1 9 2 1v37l-2 1v8l-3 1-1 5-5 3-2 6-11 11-5 2v2h-5l-1 3h-11l-1 2h-20l-3-3h-9l-3-5-6-2-5-5-2-5-3-6-1-1-1-20h3v-6l4-5h5l1 8 8 7 1 2h2l1 3h8v2l7 1 1-3h8l9-9 2-5 1-1v-22l-3-6-2-3-2-4-8-8h-5l-1-3h-9l-3-3h-14l-2 4-7-1-3 3h-6l-5 6-5 1-6 7-5 4-2 5-6 12-1 1-1 10-2 2v24l2 1 1 10 2 2 4 10 5 8 3 3 2 5 2 2 5 2 7 7 5 2 3 4h6l3 3h8l1 3h17l1 3h9l1-3h17l1-2 8-1 1-2 10-4 2-2 5-2 4-4 5-2 14-14 2-5 4-4 2-5 6-12 1-4v-3l3-3v-6l2-1 1-51-3-2v-6l-8-15-2-5h-2l-1-3-5-5-8-7-1-2h-2l-1-3-5-1-1-2 12-1 4-2h9v2l10 1 2 2 5 2 6 3 14 14 2 5 1 1 1 7 3 1v5h2l3-7 20-20 17-8 2-2 7-1 2-2 16-1 1-2h15v2l13 1 2 2 7 1 2 2 5 2 6 2v2l9 6 3 3h2l1 3h2l1 3h2l11 22 3 5 1 7 3 7h2l1-8 5-8-1-4 4-2 3-4-1-3 4-2 19-19 4-1 24-12 1-1 10-1 1-2 10-1 4-4-9-1-1-3h-10l-1-2-9-1-1-3h-6l-5-5-5-2-6-3-19-19-2-3h-2l-2-6-3-3-6-12-2-5-2-1-2 1-1 11-2 2v7l-3 1-1 5-2 1v2l-3 1 1 4-4 2-15 15v2h-2l-1 2-5 1-1 2-6 2v2h-8l-1 2h-6l-2 2-4 1h-32l-1-3h-9l-1-2-6-2-5-2-1-2-5-1-4-5-5-1-4-5-2-1-1-5-5-4-4-5h-2v-2l-4 2-1 1-1 7-2 4-6 7-3 4v3l-6 2-4 4-5 2-9 4h-21l-2-1v-4l5-2 12-12 1-4 5-4 2-6 3-6 1-4v-3l3-3v-8l-1-4 3-1v-28l-2-1-1-14-2-1v-9l-2-2-2-5-9-18-4-4-1-5h-6v-5l-5-4-4-2-6-6-5-2-18-9-1-1-10-1-1-2h-33l-1 3h-11l-1 3h-7l-2 2-5 2-6 3-21 21-2 1-2 6-1 1-1 7-2 1-1 8-2 1v33l3 1v10l4 8 5 8h2l2 4 5 5h2l1 3h2v2l6 1v2l6 1v2l7 1h2v2h22l1-3 5 1 3-1v-2l7-2 10-10 2-5 1-1v-28l-2-3-2-4-5-5h-6l-3-3h-15l-1 3h-5l-4 4v2l-4 2-3 6-2 3h-2l-2-6h-2v-7l-2-2v-8l2-1v-10l6-5v-4l6-2 4-5 5-1v-2h11v-3l18 1 1 2h8l1 3 10 4 18 18 4 10h2l1 11 2 2v25l-2 1v11l-3 1-2 5-6 12-4 3-1 5-9 9-5 2-3 3v2h-5l-2 2-5 2v2l-10-1-2 3h-43l-3-3h-5l-2-2-7-1-2-2-5-2-3-4-6-2-19-19-2-3h-2l-1-5-8-16-2-3-1-10-3-1v-22l-2-2-1-8 3-1v-2h-3l1-3 2-1v-19l3-2v-6l3-3 1-7 5-9v-3h2l1-5 8-7v-5l4-2 6-7 8-7 2-2 4-1 5-6 13-7 5-2 1-1 10-1 2-2 13-1 1-3 38 1 1 2h11l1 3h8l1 3 7 1 2 2 10 4 8 5 5 3 17 17h2l2 4 2 5 5 5 8 11 11 22 1 1 1 7 2 2 2 5 3 6 1 1 1 7h2l1 9h2l1 8 8 16 5 9 2 5 11 11 6 3 3 3 9 4h4l1 2h25l2-2 5-1 1-2 7-1 15-15 4-10 2-4-1-8 3-1 1-7-1-9-6-12-3-3h-2v-5l-4-1h-2v-2l-5-2-1-1h-8l-1-3h-2v3l-6-1-3 2v2l-3-1-5 4-2 5-1 4v15l8 8 1 5h-15l-1-3-5-1-8-8-3-6-1-5-1-3h-2v-10l-1-2h-2v-28l-3-1v-14l-3-1v-11l-2-1-1-7-2-2-1-7-8-15-6-10-7-8-20-20-5-2-4-4-7-1-2-2-5-2-1-1-7-1-2-2-13-1-1-2h-29v-6h2l1-2v-30l-2-1-1-10-2-2-4-10-5-8-4-4h-2v9l-2 3-1 7-2 2-1 7-2 2-2 5-6 12-7 6-7 8-5 1v2h-2l-2 3h-6l-2 2-5 1-2 3h-9l-3 3h-6l-2 2-7 1-1 3h-11l-1 2-5 1-1 2-5 1-1 2-5 2-8 7-2 6-4 3-2 6h-1l-1-11-3-1v-17l3-2v-7l6-5-1-4 4-2 7-7 5-2 3-3-1-3h-8l-1-3-5-2-9-9-1-4-2-7-1-5h-2v-17l3-2 1-7 2-4-1-2 4-2 10-10 10-4 2-2h11l1 3h9l7 8 4 7h-14l-2 2-5 2-6 6v21l5 4 1 5h5l1 3h5l1 3h19l1-2 8-1 7-8 7-7 1-4 3-3v-9l2-1v-16l-3-1 1-7-2-5-6-12-19-19-5-2-4-2-5-1-1-1h-39l-1 2h-12l3-4v-6l3-3v-9l-1-4 4-2-1-15-3-1 1-6-1-5-8-16-7-8-5-5-5-2-1-1zm-509 494-1 3v9h-2l-1 9h-2l-1 7-2 2v5l-3 1v8l-5 2-2 6-23 23-5 2-4 2-6 5-5 2-6 2v2l5 3 7 2 6 3 4 1 5 2 5 1 1 3h2l1 3h2v2l5 4 4 5 5 4 1 2h2l2 6 7 14v9h3v29l-1 7-2 3v8l-2 1v5l-3 1-2 5-2 6-5 4-1 5-5 4-1 2-5 1-6 6v2l-4 2v4l3 2 7 2 6 3 7 7h4l2 6 4 3 1 5h2v8l3 2v23l-5-3-5-6h-2l-1-3-7-6-1-2-5-1-1-2h-2l-1-3-5-1-1-2h-8l-1-3h-10l-2-3h-38l-3 3h-9l-2 4-7-1-1 3h-5l-1 3h-8l-4 5-5 1-4 5-5 1-7 8-4 3-2 6-7 6-2 6-1 1v7l-3 1v5l-3 1v11l-3 1v33l2 1 1 10 2 2 2 5 1 1 1 7 5 5 2 5 17 17 5 2 4 4 7 1 1 2h7l4 1 1 2h31l3-1v-2h5l3-3h6l4-5 5-2 15-15 1-4 2-5 3-3-1-6 3-1v-25l-2-4-1-5-7-7h-2l1-4-1-1h-5l-1-3h-2l-1-3h-9l-3-3h-9l-2 3h-6l-2 2-5 2-6 6v6l-3 3v14l2 2 2 5 9 9 6 3 1 3-5 1-1 2h-26l-1-2-5-2-10-10h-2v-8l-3-1v-11l-3-1 1-11 2-2 1-10 2-2 2-5 1-5 4-2 7-8 8-7 10-5 1-1 11-1v-3h27v3l11 1 1 2h8l1 3h5l2 4 5 5 5 2 8 8 2 5 4 3 1 5 2 1 1 5h2l1 9 2 1v16l2 1 1 4v8h-2l-1 16-2 2-1 7-2 2-1 7-2 1-2 6-4 3-1 5-18 18h-4l-5 6-4 1-5 5h-6l-2 2-5 2-2 2h-9l-1 2-50 1-1-3-10-1-2-2h-6l-2-3-5-1-1-2h-5l-1-3-5-1-1-2h-2l-1-3h-5l-1-3-4-1-14-14-3-6-4-4-2-5-3-3-8-17-3-8-1-1-1-10-3-1 1-41 2-1v-11l3-1 1-10 8-15 5-10 3-3 1-4 21-21 2-1v-2l6-2 5-4 10-6 15-8 11-5 1-1 7-1 1-2 8-1 1-2 6-2v-2h8l1-2 7-1 2-2 5-2 1-1 7-1 6-5 10-5 13-13 2-5 1-1v-5l3-1 1-3-1-5 3-1v-25l-2-1v-6l-3-3-1-4-18-18-5-2-1-1h-9l-2-3h-19l-1 2-7 1-4 4v2h-6v5l-8 7v22h2l2 7 3 2h4l1 3h17l8-7 5-2 1 1 1 14-3 1-2 5-5 5-5 2-12 6v2h-14l-1 2-29 1-2 3h-12l-1 3h-11l-1 3-6-1-5 3-15 8-6 3-5 4-4 2-25 25-2 5-4 4-2 5-3 6-1 1-1 10-2 2v7l-1 3-2 1v29h-44l-2 3h-6l-13 7-8 7v2h5l1 3 16 1 2 2 5 2 16 8 8 7 10 10 4 9 3 6 1 5h2v8l3 1v11l3 1v11l2 1 1 7 2 2 4 10 5 8 7 7 12 6 2 3-36 1-1-3-5-2-6-3-5-5-2-5-3-3-2-6-2 2 1 4-4 2-2 2-2 5-11 11-5 1-1 2-7 1-1 3h-15l-1-3h-9l-2-3-6-2-6-7-5-4-1-5h-2v-7l-3-3-1-10 4-2-1-4 4-2-1-4 10-5 3-2v14l2 2 2 5 6 6h19l3-1v-2l6-1 2-3v-4l3-1v-5h2l1-2v-18l-3-1v-8l-3-1v-2l-2-1-1-5h-2l-1-3-5-1-1-2h-2l-1-3h-10l-3-3h-20l-2 3h-6l-2 2-5 2-6 3-3 2h-3v5l-6 2-3 2v5l-5 3v6l-3 1-1 7-2 2-1 16-2 2v6l2 2 1 13 2 1v8l-9 1-1-3h-6l-3-3h-30l-1 4-7-1-2 2-5 2-5 5-4 1-14 14v10l8 8 6 3 8 7 10 5 5 1h7l3 2 7 1 6-3h14l1-3h8l1-3h3v11l-2 2-1 16-2 2v6l2 2 1 16 5 8 3 5 7 8 11 11 8 4 6-1 1 3h11v3h11l1-2 11-1v-2l6-1v-2l6-2 8-8 2-5 1-1v-7h2l1-2v-15l-3-1v-8l-3-1-1-3h-2v-2l-5-1-1-2h-7l-3-3-1 4-2-1h-8l-7 6-1 5-2 6-1 6-5-1-8-8h-2l1-7-3-3 1-4 2-4v-7l2-2 2-5 2-1-1-5h5l5-5 11-5 1-1 26-1 1 3 10 4 8 8 6 12 4 2 5-9 10-10 9-4 2-1v-2h24l1 3 8 1-1 2-5 1-4 5h-4l-5 6-2 1v2h-2l-2 6-2 5-2 1-1 5-2 1-1 8-2 1v11l-3 1v8l-3 1v8l-3 3-1 5-2 2v6l-6 5-1 5-5 5-5 4-3 3h-3l-4 5-5 2-6 2-1 2-10 1-1 3h-14l-3 2 2 4 6 3 4 4 5 2 1 1h8l1 3h11v3h22l1-3h12v29l3 1v13l2 2 1 7 2 2 4 10 5 8 3 1 1 6 20 20 6 3 3 3 17 8 4 4 7 1 2 2 7 1 1 2h7l4 1 1 2h26v3h23l1 3h6l4 3 10 5 8 8 2 5 1 1v13l-3 1-2-1-2-5-3-3h-6l-3-3h-9l-2 2-5 2-8 8v22l5 8 9 9 6 3 1 1h31l8-4 4-4 5-2 11-11 1-3-1-2 3-1 1-7 2-2v-27l-2-2-2-5-1-5-2-4-6-6h-2l1-5-6-2-7-7-4-1-4-2-5-3-4-2-3-1h-4l-1-2-6-2-7-2h-2v-2l-7-1-2-2-6-1v-2l-7-1-2-2-5-2-24-12-5-2-1-2h-2l-1-3h-5l-1-3h-2l-1-3h-2v-2l-5-2-15-15-1-4-5-4-1-2h-2l-1-5-7-13-1-7-2-2-1-7-3-1v-11l-3-1v-38l3-1v-14l3-1 1-7 2-2 1-7 2-4 5-6 1-4 5-4v-5l4-2 6-7 8-7 8-6 5-4 13-7 4-1 1-2h6l2-2 7-1 1-3h17l1-3h24v3h20l1 3 7 1 2 2 10 4 8 5 4 3 5 3 20 20 9 18 1 1 1 7 2 2v10l3 2-3 2v2h3v9l-2 4-1 16-2 1-1 8-2 1-1 8-5 3-2 6-19 19v2h-5l-1 3h-5l-1 3-7-1-2 3-14 1v3l-11-1-4-3h-14l-1-2-5-1-1-2-5-1-1-2-5-2-14-14-5-11h-2v-10l-2-2v-11l2-2v-12l3-2v-4l6-5v-4l6-2 3-4 8-1 1-3 11 1 1 2 11 1 3 3v2l-6 2-3 4-5 1-1 5-2 1v2l-3 1v18l2 2 4 10 6 3 3 3 4 1 24-1 8-5 9-9 2-5 2-4-1-5 3-1v-22l-3-1 1-9-3-3-1-5-5-5-1-4-3-3h-2v-2l-5-1-4-5-5-1-1-2h-5l-1-3-6-1v-2h-42l-3 3h-5l-2 2-5 2-6 3-21 21-2 1-2 6-3 6-1 1-1 7-2 1-1 8-2 1v36l3 1v8l2 1 1 7 8 15 3 5 25 25 5 2 12 6 5 1h3l1 3h8l1 3h16l1 2 9 1 13-1 1-2h16l1-3h8l4-5 3-1h5l5-6 4-1 12-12 1-4 3-3h2v23l-3 5v6l-2 2-2 5-14 14-5 2-6 3-1 1-7 1v4l2 3 6 3 14 14 2 5h2v2l2 1 1 5 2 1 2 5 1 1 1 8 2 1v7l3 2v32h-2l-1 10-2 2-1 7-5 4v5l-3 1-1 5-2 1v2l-3 1v2l-3 1v2l-4 2-2 4-3 1v2l-5 1-12 6-1 1-8 1-1 2-8 1v4l17 8 8 5 5 5 6 3 7 7 2 5 4 4 2 5 6 12 4 2 1 12 2 1v7l3 2v10h3l2-3 1-13 2-1v-8l3-1v-5l3-1v-7l6-5 4-10 21-21 5-2 5-4 15-7-1-4h-6l-3-3h-6l-2-3-5-1-1-2-5-1-4-5h-2l-1-3-5-1-4-5h-2v-5l-3-1-1-3h-2v-2l-2-1-1-5-2-1-1-7-2-2-2-5-1-1-1-46 3-1 1-7 2-2 4-10 2-1 1-5 8-7v-4l3-2v-2l6-2 6-6 5-1-2-4-1-1h-8l-1-3-5-2-6-3-8-8-2-5-3-3h-2v-5l-3-1v-14h-2l2-7 1-14h2l1 5 8 7 4 5 8 7 2 2 4 1 1 2 6 2 5 1h3l1 3h8l1 3 45-1v-2h11l3-3h6l1-2 5-2 12-6 4-4 5-2 14-14 2-5 4-4 2-5 6-12 1-4v-3l3-3v-9l3-3v-20l-3-2v-12l-3-3v-6l-2-2-2-5-3-6-4-4-2-5-11-11-5-2-4-4-5-2-6-3-1-1h-9l-2-3h-31l-1 4-7-1-2 2-7 1-1 3-3 1v2h-5l-3 3v2l-3 1v2l-3 1v2l-4 2-2 4-3 4v7l-3 2v9l-3 4 1 8 2 4v7l2 2 2 5 3 6 3 3 5 2 5 4 6 1 2 2h15l10-5 5-5 4-10 2-4-1-8h-2l-1-6-3-6h-2l-1-3h-2v-2l-8-1-3-3 2-4 3-2h5l1-3h24l1 3 5 2 11 11 2 5 1 1 1 7 2 1v26l-2 1v8l-3 1-1 5-5 3-1 5-9 9-5 2-12 6v2l-7-1-2 3h-31l-2-3h-7l-3-3h-6l-1-2-5-1-4-5-4-1-15-15-2-5h-2l-1-3h-2v-5l-3-1v-8l-2-1-1-11-2-1v-31l2-1v-11l3-1 1-7 2-2 4-10 5-5-1-4 4-2 16-16 5-2 4-4 10-4 7-4 7-1 1-3h14l1-2 38-1 1 3 13 1 2 2 7 1 1 2h8v2l12 6 3 3 6 3 3 3 5 2 14 14 2 5 3 3h2v5l3 1v2l2 1 2 6h2v8l2 1 1 8 2 1 1 10 3 1-1 47-2 1-1 13-2 1-2 6-1 1-1 7-3 5-3 7-5 5-2 4-29 29-4 1-4 4-28 14-6 2-3 3h-5l-2 2-5 1-1 2-7 1-1 3-7-1-2 4-6-1-2 1v2l-6 1v2l-6 1v2l-5 1-3 2-4 2-5 4h-3l-7 8-2 1v6h-3v2l-3 1-1 5-2 3v11l-3 3 1 12 2 1v8l4 8 7 7 1 5 6 2 4 4 10 4 1 2h26l6-3 5-5 6-2 2-2v-5l3-1v-5l3-1v-16l-2-2-2-5-2-2-5-2-1-1h-18l-7 7-1 4h-5l-1-11h-3v-3l4-2-1-7 4-2 7-7 10-4 4-2 5-1v-2h17v-3h29l1-2 11-1 1-2 8-1v-3h8l1-3h8l1-2 6-2 4-4 5-2 6-3v-2l4-2 8-8 4-1v-5l4-2v-2l4-2 4-4 4-10 2-2 4-10 2-2v-6l2-2 1-8v-32l46-1 1-3h8l2-2 5-2 8-5 3-4-5-1-1-2h-14l-1-3-7-1-2-2-5-2-6-3-6-7-6-2-2-2-1-5-4-3-8-17-2-2v-6l-3-1v-11l-3-3v-6l-3-1v-10l-2-2-4-10-5-8-13-13-5-2-7-2 1-2 6-2v-2l32 1 2 2 5 2 2 3 7 3 3 6 4 4 2 6h1l2-6 3-6 1-5 4-3 5-2 2-4 7-2v-2l32 1 2 2 5 2 6 4h2v2l3 3h2l2 6 5 10-1 17-2 3-1 3-9 9h-7l-1-5 3-3-2-4h-2l1-7-4-4-5-2-1-1h-15l-2 2-5 2-8 8-1 7-2 2v10l2 1 1 8h2l1 6h2l2 6 5 2 5 6 4 1h4l1 2h28l2-2 7-1v-2l7-2 5-6 6-2 3-3v-4l8-7 1-3-1-5 3-1 1-7 2-2v-31h-3v-8l-3-1v-9l5 3 7 1 2 2h8v3h28l3-1v-2h8l1-3 6-1 6-3v-2l3-1 7-8 7-6-1-5-20-20h-5l-1-3h-6l-3-3h-9l-3-3h-9l-1 4-2-1h-12l-2 3h-9l-2 2h-5v-5l2-1v-8l3-1v-33l-2-2-1-7-7-13-14-14-5-2-12-6-4-1h-9l-5-3-4 1-1 3-5-1h-5l-1 3h-5l-3 3-4 1-3 3v2l-4 2-2 6-2 1v8l-3 1v7l3 1v11h2l1 6h2l1 3h2v2l6 1 1 3h11l9-5 5-5v-4l3-1-1-5-2-2v-7l10 5h5v5l2 2 2 5 1 1v17l-2 1v7l-3 3-1 4-5 5-6 2-3 4-8 1v3h-27l-1-3h-5l-1-3-5-2-10-10-4-8-1-4h-2v5l-15 15-5 1-1 2-5 1-1 2h-23l-1-2-11-1 4-5 5-2 6-3 11-11 2-5 3-6 1-5 1-3 2-1 1-8 2-1v-7l3-2v-10l3-2-1-7 4-2-1-7 3-1v-5l4-2 2-2 2-5 11-11 5-2 6-2 3-4v-2h8l2-2 10-1 1-2 11-1-1-5h-5l-2-4-7-2v-2l-7-1-4-3h-11l-1-2h-19l-1 2-15 1v-40l-2-2-1-7-2-2-1-7-2-2-2-5-4-4-2-5-4-4-2-5-14-14-5-2-7-7-4-1-12-6-13-7-9-1-3-2-9-1-2-2-19-1-2-2-25-1-1-2h-8l-1-3-7-1-4-5-5-1-4-2v-5l-3-5v-4l-2-1v-2l3-2v-7l6-1v6l4 3 5 2 1 1h13l3-1v-2l4-2 5-7 2-4v-12l-7-13-8-8-5-2-1-1h-33l-1 2-6 2v2h-2l-1 2-5 1-4 5-2 1v2l-3 1-1 5-2 5-3 3v6l-2 1v16l2 4 1 8 4 7 2 5 17 17 6 3 5 4 6 1 6 2v2l6 1v2l8 1 1 2h8l1 3h8l1 3h5l1 3 7 1 2 2 5 2 16 8 10 6 7 5h2v2h2l1 3 5 2 14 14 2 5h2v2l5 5 11 22 1 1 1 7 2 2 1 10 2 1 1 50-3 1-1 10-2 1v8l-3 1-2 5-9 18-26 26-4 1-4 4-12 6-5 2-1 3-7-1-3 3h-6l-2 3h-15l-1 3-26-1-1-2-17-1-1-2h-8l-1-3h-5l-1-3h-6l-5-6-5-1-4-5-5-1-5-5-2-3h-2l-1-3h-2l-1-5-4-4-2-5-4-4-1-7-3-1v-5l-3-1v-11l-3-1v-32l3-1 1-10 2-1 1-8 2-1v-5l3-1v-4l8-7 5-5v-2l4-2 3-3v-2l7-2 4-4 5-3 8-1v-3l41 1 1 2h8l1 3 5 2 6 3 14 14 2 5 3 6h2v8l2 1v23l-2 1v11l-6 3-1 5-6 6-5 1v3l-7-1-2 3h-11l-3-3h-9l-1-2-5-1v-5l3-1h5l7-8 5-4-1-8h3l1-7-3-4v-5l-13-13h-26l-5 5-5 2-6 5v6l-4 2-2 2v9l-3 2v12l3 1v9l8 16 3 2 1 5 5 4 1 2 6 1 2 4 1 1h5l1 3h8l1 3h11v3h22l3-3h8l2-2 5-2 12-6 7-7 4-1v-5l4-2 8-8 2-5 3-6 1-5 2-4 1-5-1-9h3l1-4v-15l-3-2v-15l-1-2h-2l-1-6h-2v-7l-2-2-2-5-4-4-2-5-20-20-5-2-3-4-6-2-1-1-7-1-1-2-5-1-1-2h-8l-1-3h-15l-3-3h-21l-2 3h-12l-2 4-7-1-2 2-5 2-6 3-5 2v2l-4 2-17 17-1 2h-2l-1-11-2-7h2v-14l3-1v-5l3-1v-4l8-7 8-8 5-2 1-2h6l2-2 5-1-1-3-8-5-16-16-2-5h-2v-2l-2-1-4-10-2-3-1-9-3-1v-44l3-1 1-7 2-2 2-5 3-6 4-3 1-5 15-15 11-4 5-5h5l2-2 8-2 6-2-1-2-5-2-18-9-5-4-5-3-12-12-2-5-4-4-2-5-6-12-1-1-1-7-3-1v-8l-3-1v-11h-2l-1-3zm1024 0-1 3v9h-2l-1 9h-2l-1 7-2 2v5l-3 1v8l-5 2-2 6-23 23-5 2-4 2-6 5-5 2-6 2v2l5 3 7 2 6 3 4 1 5 2 5 1 1 3h2l1 3h2v2l5 4 4 5 5 4 1 2h2l2 6 7 14v9h3v29l-1 7-2 3v8l-2 1v5l-3 1-2 5-2 6-5 4-1 5-5 4-1 2-5 1-6 6v2l-4 2v4l3 2 7 2 6 3 7 7h4l2 6 4 3 1 5h2v8l3 2v23l-5-3-5-6h-2l-1-3-7-6-1-2-5-1-1-2h-2l-1-3-5-1-1-2h-8l-1-3h-10l-2-3h-38l-3 3h-9l-2 4-7-1-1 3h-5l-1 3h-8l-4 5-5 1-4 5-5 1-7 8-4 3-2 6-7 6-2 6-1 1v7l-3 1v5l-3 1v11l-3 1v33l2 1 1 10 2 2 2 5 1 1 1 7 5 5 2 5 17 17 5 2 4 4 7 1 1 2h7l4 1 1 2h31l3-1v-2h5l3-3h6l4-5 5-2 15-15 1-4 2-5 3-3-1-6 3-1v-25l-2-4-1-5-7-7h-2l1-4-1-1h-5l-1-3h-2l-1-3h-9l-3-3h-9l-2 3h-6l-2 2-5 2-6 6v6l-3 3v14l2 2 2 5 9 9 6 3 1 3-5 1-1 2h-26l-1-2-5-2-10-10h-2v-8l-3-1v-11l-3-1 1-11 2-2 1-10 2-2 2-5 1-5 4-2 7-8 8-7 10-5 1-1 11-1v-3h27v3l11 1 1 2h8l1 3h5l2 4 5 5 5 2 8 8 2 5 4 3 1 5 2 1 1 5h2l1 9 2 1v16l2 1 1 4v8h-2l-1 16-2 2-1 7-2 2-1 7-2 1-2 6-4 3-1 5-18 18h-4l-5 6-4 1-5 5h-6l-2 2-5 2-2 2h-9l-1 2-50 1-1-3-10-1-2-2h-6l-2-3-5-1-1-2h-5l-1-3-5-1-1-2h-2l-1-3h-5l-1-3-4-1-14-14-3-6-4-4-2-5-3-3-8-17-3-8-1-1-1-10-3-1 1-41 2-1v-11l3-1 1-10 8-15 5-10 3-3 1-4 21-21 2-1v-2l6-2 5-4 10-6 15-8 11-5 1-1 7-1 1-2 8-1 1-2 6-2v-2h8l1-2 7-1 2-2 5-2 1-1 7-1 6-5 10-5 13-13 2-5 1-1v-5l3-1 1-3-1-5 3-1v-25l-2-1v-6l-3-3-1-4-18-18-5-2-1-1h-9l-2-3h-19l-1 2-7 1-4 4v2h-6v5l-8 7v22h2l2 7 3 2h4l1 3h17l8-7 5-2 1 1 1 14-3 1-2 5-5 5-5 2-12 6v2h-14l-1 2-29 1-2 3h-12l-1 3h-11l-1 3-6-1-5 3-15 8-6 3-5 4-4 2-25 25-2 5-4 4-2 5-3 6-1 1-1 10-2 2v7l-1 3-2 1v29h-44l-2 3h-6l-13 7-8 7v2h5l1 3 16 1 2 2 5 2 16 8 8 7 10 10 7 15 1 5h2v8l3 1v11l3 1v11l2 1 1 7 2 2 4 10 5 8 7 7 12 6 2 3-36 1-1-3-5-2-6-3-5-5-2-5-3-3-2-6-2 2 1 4-4 2-2 2-2 5-11 11-5 1-1 2-7 1-1 3h-15l-1-3h-9l-2-3-6-2-6-7-5-4-1-5h-2v-7l-3-3-1-10 4-2-1-4 4-2-1-4 10-5 3-2v14l2 2 2 5 6 6h19l3-1v-2l6-1 2-3v-4l3-1v-5h2l1-2v-18l-3-1v-8l-3-1v-2l-2-1-1-5h-2l-1-3-5-1-1-2h-2l-1-3h-10l-3-3h-20l-2 3h-6l-2 2-5 2-6 3-3 2h-3v5l-6 2-3 2v5l-5 3v6l-3 1-1 7-2 2-1 16-2 2v6l2 2 1 13 2 1v8l-9 1-1-3h-6l-3-3h-30l-1 4-7-1-2 2-5 2-5 5-4 1-14 14v10l3 3h2l2 4 8 5 7 6 5 3 5 2 5 1h8l2 2 7 1 6-3h14l1-3h8l2-3h2v11l-2 2-1 16-2 2v6l2 2 1 16 5 8 3 5 7 8 11 11 8 4 6-1 1 3h11v3h11l1-2 11-1v-2l6-1v-2l6-2 8-8 2-5 1-1v-7h2l1-2v-15l-3-1v-8l-3-1-1-3h-2v-2l-5-1-1-2h-7l-3-3-1 4-2-1h-8l-7 6-1 5-2 6-1 6-5-1-8-8h-2l1-7-3-3 1-4 2-4v-7l2-2 2-5 2-1-1-5h5l5-5 11-5 1-1 26-1 1 3 10 4 8 8 6 12 4 2 5-9 10-10 9-4 2-1v-2h24l1 3 8 1-1 2-5 1-4 5h-4l-5 6-2 1v2h-2l-2 6-2 5-2 1-1 5-2 1-1 8-2 1v11l-3 1v8l-3 1v8l-3 3-1 5-2 2v6l-6 5-1 5-5 5-5 4-3 3h-3l-4 5-5 2-6 2-1 2-10 1-1 3h-14l-3 2 2 4 6 3 4 4 5 2 1 1h8l1 3h11v3h22l1-3h12v29l3 1v13l2 2 1 7 2 2 4 10 5 8 3 1 1 6 20 20 6 3 3 3 17 8 4 4 7 1 2 2 7 1 1 2h7l4 1 1 2h26v3h23l1 3h6l4 3 10 5 8 8 2 5 1 1v13l-3 1-2-1-2-5-3-3h-6l-3-3h-9l-2 2-5 2-8 8v22l5 8 9 9 6 3 1 1h31l8-4 4-4 5-2 11-11 1-3-1-2 3-1 1-7 2-2v-27l-2-2-2-5-1-5-2-4-6-6h-2l1-5-6-2-7-7-4-1-4-2-5-3-4-2-3-1h-4l-1-2-6-2-7-2h-2v-2l-7-1-2-2-6-1v-2l-7-1-2-2-5-2-24-12-5-2-1-2h-2l-1-3h-5l-1-3h-2l-1-3h-2v-2l-5-2-15-15-1-4-5-4-1-2h-2l-1-5-7-13-1-7-2-2-1-7-3-1v-11l-3-1v-38l3-1v-14l3-1 1-7 2-2 1-7 2-4 5-6 1-4 5-4v-5l4-2 6-7 8-7 8-6 5-4 13-7 4-1 1-2h6l2-2 7-1 1-3h17l1-3h24v3h20l1 3 7 1 2 2 10 4 8 5 4 3 5 3 20 20 9 18 1 1 1 7 2 2v10l3 2-3 2v2h3v9l-2 4-1 16-2 1-1 8-2 1-1 8-5 3-2 6-19 19v2h-5l-1 3h-5l-1 3-7-1-2 3-14 1v3l-11-1-4-3h-14l-1-2-5-1-1-2-5-1-1-2-5-2-14-14-5-11h-2v-10l-2-2v-11l2-2v-12l3-2v-4l6-5v-4l6-2 3-4 8-1 1-3 11 1 1 2 11 1 3 3v2l-6 2-3 4-5 1-1 5-2 1v2l-3 1v18l2 2 4 10 6 3 3 3 4 1 24-1 8-5 9-9 2-5 2-4-1-5 3-1v-22l-3-1 1-9-3-3-1-5-5-5-1-4-3-3h-2v-2l-5-1-4-5-5-1-1-2h-5l-1-3-6-1v-2h-42l-3 3h-5l-2 2-5 2-6 3-21 21-2 1-2 6-3 6-1 1-1 7-2 1-1 8-2 1v36l3 1v8l2 1 1 7 8 15 3 5 25 25 5 2 12 6 5 1h3l1 3h8l1 3h16l1 2 9 1 13-1 1-2h16l1-3h8l4-5 3-1h5l5-6 4-1 12-12 1-4 3-3h2v23l-3 5v6l-2 2-2 5-14 14-5 2-6 3-1 1-7 1v4l2 3 6 3 14 14 2 5h2v2l2 1 1 5 2 1 2 5 1 1 1 8 2 1v7l3 2v32h-2l-1 10-2 2-1 7-5 4v5l-3 1-1 5-2 1v2l-3 1v2l-3 1v2l-4 2-2 4-3 1v2l-5 1-12 6-1 1-8 1-1 2-8 1v4l17 8 8 5 5 5 6 3 7 7 2 5 4 4 2 5 6 12 4 2 1 12 2 1v7l3 2v10h3l2-3 1-13 2-1v-8l3-1v-5l3-1v-7l6-5 4-10 21-21 5-2 5-4 15-7-1-4h-6l-3-3h-6l-2-3-5-1-1-2-5-1-4-5h-2l-1-3-5-1-4-5h-2v-5l-3-1-1-3h-2v-2l-2-1-1-5-2-1-1-7-2-2-2-5-1-1-1-46 3-1 1-7 2-2 4-10 2-1 1-5 8-7v-4l3-2v-2l6-2 6-6 5-1-2-4-1-1h-8l-1-3-5-2-6-3-8-8-2-5-3-3h-2v-5l-3-1v-14h-2l2-7 1-14h2l1 5 8 7 4 5 8 7 2 2 4 1 1 2 6 2 5 1h3l1 3h8l1 3 45-1v-2h11l3-3h5l2-2 5-2 12-6 4-4 5-2 14-14 2-5 4-4 2-5 6-12 1-4v-3l3-3v-9l3-3v-20l-3-2v-12l-3-3v-6l-2-2-2-5-3-6-4-4-2-5-11-11-5-2-4-4-5-2-6-3-1-1h-9l-2-3h-31l-1 4-7-1-2 2-7 1-1 3-3 1v2h-5v2l-3 1v2l-3 1v2l-3 1v2l-4 2-2 4v3l-3 1v7l-3 2v9l-3 4 1 8 2 4v7l2 2 2 5 3 6 3 3 5 2 5 4 6 1 2 2h15l10-5 5-5 4-10 2-4-1-8h-2l-1-6-3-6h-2l-1-3h-2v-2l-8-1-3-3 2-4 3-2h6v-3h24l1 3 5 2 11 11 2 5 1 1 1 7 2 1v26l-2 1v8l-3 1-1 5-5 3-1 5-9 9-5 2-12 6v2l-7-1-2 3h-31l-2-3h-7l-3-3h-6l-1-2-5-1-4-5-4-1-15-15-2-5h-2l-1-3h-2v-5l-3-1v-8l-2-1-1-11-2-1v-31l2-1v-11l3-1 1-7 2-2 4-10 5-5-1-4 4-2 16-16 5-2 4-4 10-4 7-4 7-1 1-3h14l1-2 38-1 1 3 13 1 2 2 7 1 1 2h8v2l12 6 3 3 6 3 3 3 5 2 14 14 2 5 3 3h2v5l3 1v2l2 1 2 6h2v8l2 1 1 8 2 1 1 10 3 1-1 47-2 1-1 13-2 1-2 6-1 1-1 7-3 5-3 7-5 5-2 4-29 29-4 1-4 4-28 14-6 2-3 3h-5l-2 2-5 1-1 2-7 1-1 3-7-1-2 4-6-1-2 1v2l-6 1v2l-6 1v2l-5 1-3 2-4 2-5 4h-3l-7 8-2 1v6h-3v2l-3 1-1 5-2 3v11l-3 3 1 12 2 1v8l4 8 7 7 1 5 6 2 4 4 10 4 1 2h26l6-3 5-5 6-2 2-2v-5l3-1v-5l3-1v-16l-2-2-2-5-2-2-5-2-1-1h-18l-7 7-1 4h-5l-1-11h-3v-3l4-2-1-7 4-2 7-7 10-4 4-2 5-1v-2h17v-3h29l1-2 11-1 1-2 8-1v-3h8l1-3h8l1-2 6-2 4-4 5-2 6-3v-2l4-2 8-8 4-1v-5l4-2v-2l4-2 4-4 4-10 2-2 4-10 2-2v-6l2-2 1-8v-32l46-1 1-3h8l2-2 5-2 8-5 3-4-5-1-1-2h-14l-1-3-7-1-2-2-5-2-6-3-6-7-6-2-2-2-1-5-4-3-8-17-2-2v-6l-3-1v-11l-3-3v-6l-3-1v-10l-2-2-4-10-5-8-13-13-5-2-7-2 1-2 6-2v-2l32 1 2 2 5 2 2 3 7 3 3 6 4 4 2 6h1l2-6 3-6 1-5 4-3 5-2 2-4 7-2v-2l32 1 2 2 5 2 6 4h2v2l3 3h2l2 6 5 10-1 17-2 3-1 3-9 9h-7l-1-5 3-3-2-4h-2l1-7-4-4-5-2-1-1h-15l-2 2-5 2-8 8-1 7-2 2v10l2 1 1 8h2l1 6h2l2 6 5 2 5 6 4 1h4l1 2h28l2-2 7-1v-2l7-2 5-6 6-2 3-3v-4l8-7 1-3-1-5 3-1 1-7 2-2v-31h-3v-8l-3-1v-9l5 3 7 1 2 2h8v3h28l3-1v-2h8l5-3 8-4 7-8 7-7 3-2-1-5-20-20h-5l-1-3h-6l-3-3h-9l-3-3h-9l-1 4-2-1h-12l-2 3h-9l-2 2h-5v-5l2-1v-8l3-1v-33l-2-2-1-7-7-13-14-14-5-2-12-6-4-1h-9l-5-3-4 1-1 3-5-1h-5l-1 3h-5l-3 3-4 1-3 3v2l-4 2-2 6-2 1v8l-3 1v7l3 1v11h2l1 6h2l1 3h2v2l6 1 1 3h11l9-5 5-5v-4l3-1-1-5-2-2v-7l10 5h5v5l2 2 2 5 1 1v17l-2 1v7l-3 3-1 4-5 5-6 2-3 4-8 1v3h-27l-1-3h-5l-1-3-5-2-10-10-4-8-1-4h-2v5l-15 15-5 1-1 2-5 1-1 2h-23l-1-2-11-1 4-5 5-2 6-3 11-11 2-5 3-6 1-5 1-3 2-1 1-8 2-1v-7l3-2v-10l3-2-1-7 4-2-1-7 3-1v-5l4-2 2-2 2-5 11-11 5-2 6-2 3-4v-2h8l2-2 10-1 1-2 11-1-1-5h-5l-2-4-7-2v-2l-7-1-4-3h-11l-1-2h-19l-1 2-15 1v-40l-2-2-1-7-2-2-1-7-2-2-2-5-4-4-2-5-4-4-2-5-14-14-5-2-7-7-4-1-12-6-13-7-9-1-3-2-9-1-2-2-19-1-2-2-25-1-1-2h-8l-1-3-7-1-4-5-5-1-4-2v-5l-3-1 1-7-3-2v-2l3-2v-7l6-1v6l4 3 5 2 1 1h13l3-1v-2l4-2 5-7 2-4v-12l-7-13-8-8-5-2-1-1h-33l-1 2-6 2v2h-2l-1 2-5 1-4 5-2 1v2l-3 1-1 5-2 5-3 3v6l-2 1v16l2 4 1 8 4 7 2 5 17 17 6 3 3 3 8 2 6 2v2l6 1v2l8 1 1 2h8l1 3h8l1 3h5l1 3 7 1 2 2 5 2 16 8 10 6 7 5h2v2h2l1 3 5 2 14 14 2 5h2v2l5 5 11 22 1 1 1 7 2 2 1 10 2 1 1 50-3 1-1 10-2 1v8l-3 1-2 5-9 18-26 26-4 1-4 4-12 6-5 2-1 3-7-1-3 3h-6l-2 3h-15l-1 3-26-1-1-2-17-1-1-2h-8l-1-3h-5l-1-3h-6l-5-6-5-1-4-5-5-1-5-5-2-3h-2l-1-3h-2l-1-5-4-4-2-5-4-4-1-7-3-1v-5l-3-1v-11l-3-1v-32l3-1 1-10 2-1 1-8 2-1v-5l3-1v-4l8-7 5-5v-2l4-2 3-3v-2l7-2 4-4 5-3 8-1v-3l41 1 1 2h8l1 3 5 2 6 3 14 14 2 5 3 6h2v8l2 1v23l-2 1v11l-6 3-1 5-6 6-5 1v3l-7-1-2 3h-11l-3-3h-9l-1-2-5-1v-5l3-1h5l7-8 5-4-1-8h3l1-7-3-4v-5l-13-13h-26l-5 5-5 2-6 5v6l-4 2-2 2v9l-3 2v12l3 1v9l8 16 3 2 1 5 5 4 1 2 6 1 2 4 1 1h5l1 3h8l1 3h11v3h22l3-3h8l2-2 5-2 12-6 7-7 4-1v-5l4-2 8-8 2-5 3-6 1-5 2-4 1-5-1-9h3l1-4v-15l-3-2v-15l-1-2h-2l-1-6h-2v-7l-2-2-2-5-4-4-2-5-20-20-5-2-3-4-6-2-1-1-7-1-1-2-5-1-1-2h-8l-1-3h-15l-3-3h-21l-2 3h-12l-2 4-7-1-2 2-5 2-6 3-5 2v2l-4 2-17 17-1 2h-2l-1-11-2-7h2v-14l3-1v-5l3-1v-4l8-7 8-8 5-2 1-2h6l2-2 5-1-1-3-8-5-16-16-2-5h-2v-2l-2-1-4-10-2-3-1-9-3-1v-44l3-1 1-7 2-2 2-5 3-6 4-3 1-5 15-15 11-4 5-5h5l2-2 8-2 6-2-1-2-5-2-18-9-5-4-5-3-12-12-2-5-4-4-2-5-6-12-1-1-1-7-3-1v-8l-3-1v-11h-2l-1-3zm-511 529-19 19-4 10-2 2-2 5-1 4v29l2 2 1 10 3 1v10l-4-1v-2l-4-1-7 1-1-3h-34l-1 2h-6l-5 3-9 5-14 14-4 10-3 6-1 1-1 30 3 1v7l9 10 5 4 1 2 6 1v2h25l5-3 7-7v-4h2l1-8v-7l-4-8-3-3-4-1-2-2h-9l-1 3h-7l4-7 4-8 3-3 4-1 1-3 3 1h21l5 3h3v2l4 4h2v2l5 5 5 10 1 1v28l-2 2-4 10-12 12-10 3-1 2 6 2 4 4 6 3 2 6 5 4 1 8h3v27l-3 1-1 8-2-1-4-10-15-15-5-2-12-6-1-1-7-1-1-2-10-1-2-2-7-1-2-2h-9l-3-3-5-2-6-3-5-2-5-5-4-1-1-2h-2v-2l-2-1-2-6h-2v-2l-2-1-2-5-3-6-1-1-1-7-2-2-1-10-3-1v-8h-4v5l-4 2-2 2-2 5-1 1-1 7-2 2v49h-10l-1-3h-12l-1 3h-17l-1 2-10 1-2 2-10 4-2 2-5 2-5 4-4 2-17 17-1 4-5 6-2 4-3 3-2 5-6 12-1 1-1 7-2 1-1 8-2 1v11l-3 1-1 25-2 1v20l-3 1v8l-3 5-2 4-4 3-1 5-3 3-5 1v3l-20-1-2-3h-2v-3l7-2 5-2 2-5 1-4v-9l-4-10h-5l-2-4-1-1h-19l-4 4v2l-4-1-7 7-2 5-3 6-1 1v26l7 13 4 4 2 5 4 1 4 4 8 4h3v2l4 1 28-1 1-2 7-1 2-2 5-2 16-16 8-17 4-7 2-5 1-1 1-7 2-1v-8l3-1 1-7 5-9 1-6 8-15 8-16 3-3 1-4 8-8 1-4 17-17 6-3 5-4 5-3 2-2 5-2 6-3 1-1 7-1 1-3h11l1-3h20v-3h18l1 3h17l1 3 10 1 1 2h8l1 3 5 2 6 3 3 3 6 3 3 3 6 3 13 13 3 6 6 6 2 5 6 12h2v8l2 1 1 8 2 1 1 13 3 1-1 35-2 1v14l-3 1-1 7-2 2-1 7-2 1-1 5-2 1v2l-3 1-1 5-5 4v2h-2l-2 6-7 6h-3l-7 8-10 4-7 3-1 2-7 1-1 3-6-1-8 1v2h-25v-3h-13l-1-2-5-1-1-2-8-1-4-5-5-2-17-17-8-17-1-1-1-7-2-1-1-38h3l1-8 2-2v-4h2l1-6 4-2 3-3v-2l4-2 4-5 6-2 3-4 8-1 1-2 32-1 1 3 5 2 6 3 11 11 1 7 3 1-1 17-2 1v8l-3 1-1 5h-5l-1-8-2-2-2-5h-2l-1-3-7-3-1-2h-15l-2 2-5 2-7 7-2 1-3 12v13l7 15 5 5 12 6 4 1 27-1 1-2 8-1v-2l6-1 7-8 2-2 5-1 1-5 5-5v-4l3-1v-7l3-2v-7l-1-3 4-2v-21l-3-3v-8l-3-4v-5l-2-2-2-5-4-4-2-5-14-14-5-2-18-9-1-1h-9l-2-3h-30l-3 3h-9l-2 2-7 1-1 2-6 2v2h-5l-1 3h-2l-1 2-5 1-7 8-9 9-2 1v2h-2l-2 6-3 6-4 3v8l-3 1-2 5-1 1v11l-3 1v47l3 1v10l7 13 2 3h2l2 6 12 12 2 3h5v5l-8 1h-21l-2-3h-7l-4-5-5-2-8-8-8-17-3-6h-1l-2 6-19 19v2h-5l-4 4v2l-6-1-3 3-5 1-1 2h-7l-3 3h-40l-1-3h-6l-5-3-14-7-3-4-5-1-7-8-2-1-1-5-3-3h-2l-1-6-4-6-3-7-2-10-2-3h-2l-2 6-9 18-3 2-2 6-12 12h-4l-7 8-5 2-12 6-5 1-4 2-3 1-8 1v2h-7l-5 1 1 4 12 1 2 2h8l1 3 7 1 2 2 5 2 12 6 8 7 5 3 9 9 2 5 5 6 2 4 2 5 6 12 3-3 1-2 1-9 2-2 2-5 3-6 1-3-1-2 4-2 8-8 1-4 5-4 4-2 6-6 5-2 1-1 7-1 1-3h8l1-3h41l1 3 7 1 1 2 8 1 2 2 4 1 4 5 5 2 15 15h2l2 7 4 2 3-4v-7l3-1v-4l6-5v-4l8-7 2-2 5-2 6-3v-2l32 1v2l-7 3-5 6-8 7-1 5-5 4-2 5-3 6-1 1-1 7-2 4v9h-3v30l3 1v14l3 1v8l3 1v8l2 1 4 10 5 6 3 5 19 19 5 1v2l4 3 5 2 1 1 7 1 1 2h8l1 3h14l1 3h18l1-3h14l1-2 7-1 2-2 5-2 6-3 4-4 5-2 14-14 2-5 6-12 1-5-1-3 3-1 1-10v-26l-3-2v-6l-1-2h-2l-1-6-3-6-3-3h-2v-5l-3-1v-2l-3-3-5-1-1-2h-2l-1-3h-5l-1-3h-5l-1-3h-32l-2 2-5 2-6 3-6 6-1 4-2 3-2 4-1 7-3 3v3l2 1 1 13 13 13 7 1 2 2 10-1v-2h7l7-7 1-4 2-1 1-5h5l3 3 1 11 2 1v5l-3 3v8l-2 1-2 6-8 8-5 2-6 3v2l-32-1-3-3h-6l-4-5-4-1-14-14h-2v-5l-3-1v-7l-2-2-1-7-2-2-1-26 3-1 1-10 2-1v-6l3-3 1-5 5-4v-4l7-6 3-3v-2l4-2 3-3v-2l6-1v-2l7-2v-2h8l1-2 11-1v-3l29 1 1 2h11l1 3h11l2 4 2 2 5 2 6 3 13 13h4l1 5 7 7 2 5 9 18 1 1 1 10 2 1 1 17 2 1v17l-2 1-1 19-2 1-1 8-2 1-1 8-2 1v8l-3 1v4l-6 5 1 4-4 2-3 4v4h-6l-1 5-9 9h-4l-4 5v2l-4-1-1 3-4 2-5 2-6 3-2 2h-6l-1 2-8 1-1 2-16 1-1 3-26-1-1-2-15-1v-2l-10-1-2-2-7-1-1-2-5-1-1-2-5-1-1-2h-2l-1-3-5-1-1-2h-2l-1-3-4-1-18-18-2-5h-2l-2-4-1-4-5-5-1-4-3-3h-2l-1-5-7-13-2-8-3-6-1-1-1-7-3-1v-8l-3-1v-7l-2-2-1-5h-2l-1-8-2-2-2-5-3-3-2-5-5-8-16-16-5-2-5-1-4-2h-31v2l-6 1v2l-5 1-3 2-4 1-2 2-2 6-4 3-2 6-4 3v7l-3 2v15l3 1v11l2 2 2 5 11 11h8l1 3h16l1-3h2l1-2 5-1v-5h2l1-4v-12l-4-10-5-6 18-1 2 4 9 9 5 11 1 1 1 10 2 1 1 31 3 1v14l2 1 1 8 2 1 1 10 2 2 2 5 1 1 1 7 5 8 3 1v5l5 5 2 5 20 20 6 3 3 3 5 2 6 3 1 1 7 1 2 2 7 1 1 2h41v12l-3 1v25l2 1 1 13 2 2 2 5 3 6 4 2 1 6 5-1 2-2v-17l3-1 1-7 2-2 4-10 5-4v-5l6-2 13-13 5-2 5-1 3-1v-2h8l1-3h11l1-2 8-1 1-2 10-1 2-2 10-4 2-2 5-2 4-4 4-1v-5l4-2 2-2 2-5 2-6h2l1 14 3 1v15l-3 1v7l-1 3-2 1-1 5-5 1v4l-6 2-3 4-8 4v2l7 1 2 2 5 2 8 8 2 5 3 3h2v8l3 1-1 23-2 1-1 5-2 1v2l-3 1-1 4-8 9-6 2v2h-27v-3h-5l-1-6-5-4-1-5 7-1 1 4 2-3h9l7-6 1-19-4-10-5-5-8-1-1-2h-22l-1 3h-5l-4 5-5 1-1 5-5 5v3l-2 1-1 11-3 3 1 14 2 2v6l3 3v6l4 4h2v5l15 15 15 7h4l1 2h34l1-3h12v13l-3 1v8l-3 3v18l2 2 1 10 2 2 2 5 3 6 20 20 5-1 8-8 1-2 5-1v-4l5-4 6-12 1-4-1-4 3-1v-23h-3l1-10-3-1v-9l-1-3 10-1 1 3h36l2-2 7-1 2-2 5-2 6-3 14-14v-4l6-5-1-7 3-1 1-3-1-5 3-1v-16l-3-1v-11l-2-1-1-5h-2l-1-3-2-1-1-5-7-3-1-2-5-1-1-2h-25l-2 2-5 2-5 5-2 5-1 1v18l2 2 2 5 4 3h5l4 3h7l-3 7-6 5-1 2-24 1v-3h-7l-5-6-5-4-1-2h-2l-1-5-2-6-2-4-1-19 3-2v-8l3-1v-4l8-7 5-5 11-5-1-3-5-2-15-15-1-4-3-9h-2l1-15 2-1v-12l5 4 3 6 4 4 1 4 5 2 7 7 5 2 1 1 7 1 1 2 11 1 1 2h8l1 3h11l1 3 7 1 15 8h3v2l8 7 11 11 3 6 1 1 1 7 3 1v8l3 1v14l3 3 5-1 3-5 4-8 1-1v-5l3-1 1-13 2-2v-27l-3-1v-9l17 1 6-1h17l2-2 7-1 1-3h8l2-2 5-2 6-3 4-4 7-4 1-3 3-1v-2l4-2 10-11 2-4 6-9 8-17 3-6 1-1 1-7 2-2v-7h2l1-2v-18l3-2v-22l-1-3 4-2v-12l3-3 5-10 9-9 1-2h17l1 6h-6l-1 5-2 1v18l3 7 6 1 2 4 1 1h19l2-2 5-2 10-10 1-6 3-1-1-7 4-2v-14l-3-3v-9l-3-4-1-4-4-3-2-5-3-3-4-1-6-5-10-5-3-1h-27l-2 3h-6l-4 3-4 2-20 20-2 5-6 12-2 5-1 1-1 7-2 1v8l-3 1-1 7-2 2v5l-3 1-1 7-2 2-1 7-2 2-1 4-2 1-1 5-2 1v2l-3 1-1 5-3 5v2h-2v2h-2v5l-3 1-6 6v5l-4 2-8 8-1 2-5 1-4 5-2 1v2h-5l-1 3h-5l-5 6h-7l-1 2-5 1-1 2-10 1-1 3h-17l-1 2h-23l-1-2-16-1-2-2-7-1-1-2h-8l-1-3-5-1-1-2h-2l-1-3h-5l-1-3-5-2-4-4h-2l-1-3h-5v-5l-5-2-4-2v-5l-4-4h-2l-2-6-4-8h-2l-1-5-3-7h-2v-7l-2-2-1-10-3-1v-23l-2-1v-5l2-2v-21l3-2v-11l3-1v-7l5-4 4-9 6-7 5-5 2-5 4-3 4-2 6-6 5-2 12-6 1-1 7-1 1-2 8-1 1-2h28l1 2 14 1 1 2 8 1 4 5h5l2 4 2 2 5 2 11 11 2 5h2v5l5 4 1 8 2 1 1 10 3 1-1 26-2 1-1 8-2 1-1 8-5 3-2 6-14 14-5 2v2h-8l-1 2h-29l-1-2-10-1-11-11h-2v-5l-2-2-1-7-3-1v-9l3-1 1-10 3-3 3-1 2 5 3 5 6 7 7 1h2l1 3h10l10-5 3-3 5-2-1-4 4-2-1-10 4-2-1-7h-3l1-6-3-4-1-4-2-3-2-4-5-5-4-1-4-2-4-3h-29l-2 4-7-1-3 3-4 1-5 5-4 1v2h-2l-6 6v5l-3 1-2 5-3 6-1 1v8l-3 1v36l2 1 1 7 2 2 4 10 5 8 16 16 12 6 5 2 5 1 3 1 1 2h11l1 3h24l1-3h14l1-2 7-1 2-2 5-2 6-3 4-4 5-2 20-20 2-5 4-4 2-5 6-12 1-5v-5l2-1 1-8-1-6 3-1 1-30-3-2v-10l-3-2v-6l-1-2h-2l-1-6-6-11-7-7-4-5-7-6-4-1v-2h29l1 2 7 1 2 2 5 2 8 8 2 5 3 3h2v5l3 1v8l3 3 3-1 5-5v-4l15-15 5-2 7-3 3-4 7-1 2-2 7-1 1-3h41l1 3 7 1 1 2 8 1 2 2 5 2 3 4h2l1 3h5l1 3h2l1 3h2v5l3 1v2l5 4 2 5 3 6 1 1 1 7 2 2 1 7 4 4 8-17 2-4-1-2 4-2 8-8v-5l4-2 5-4 4-2 6-6 5-2 12-6v-2h8l1-2 10-1 2-2 10-1 1-4-11-1-3-3-9 1-1-3-6-1v-2l-7-1-2-2-5-2-3-4-6-2-3-4-5-1-9-9-1-2h-2l-2-6-3-3-8-17-3-6-4 4-1 9-8 15-1 4-2 1v2l-3 1v4l-6 5-2 2-4 1v2h-2l-4 5-5 1v2l-4 2v2l-6-1-3 3h-7l-3 3h-37v-3h-10l-5-3-6-3h-2v-2l-6-1v-2l-5-2-19-19h-2v-5l-2-1-2 6-6 12-4 5-2 4-5 5-10 4-2 2-4 1v2h-31v-6h5l16-16 1-4 5-5v-4h2l1-6h2l1-6v-5l2-1 1-16-1-4 4-2-2-7h-2l1-19-3-2v-9l-3-3-1-5h-2v-7l-2-2-2-5-4-4-2-5-23-23-5-2-12-6-1-1-7-1-1-2-10-1-2-2h-30l-3 3h-9l-1 2-6 2v2l-6-1-9 9-4 1-10 10-2 1-2 6-4 3-2 6-1 1-1 7-2 1v11l-3 1v21l3 1v11l3 1v8l2 2 2 5 4 2 1 6 3 3h2v2l6 3 3 3 9 4h3v2l9 1 25-1 8-5 4-3 3-1-1-4 4-2 3-4 2-4v-22l-5-8-7-7-5-2-1-1h-14l-2 1v2h-5l-6 6-2 5-1 1-1 8h-5l-2-6h-2v-8l-2-1v-17l2-1v-6l13-13 11-5v-2l32 1 1 2 7 1 2 2 5 2 17 17 4 10h2l1 9 2 1v37l-2 1v8l-3 1-2 5-6 12-17 17-5 2-12 6v2l-7-1-1 4-7-1h-6l-2 1v2h-20l-2-3h-13l-1-2-7-1-2-2-5-2-12-6-6-7-5-1-4-5-2-1-1-5-8-7-1-5-4-3h-2l1-4-3-5-1-5h-2v-8l-3-1v-14l-2-1-1-35 3-1v-14h3v-7l3-3 1-7 5-8v-3l5-4 1-5 5-4v-5l4-2 13-13 4-1 5-5 4-1 3-4 5-1 3-3h5l2-2 5-1 1-2 11-1v-3h20l1-2 12-1v3h23l1 3 10 1 2 2 4 1 1 2h8v2l6 1 1 3h2v2l6 3 3 1v2l6 3 17 17 1 4h2l1 3h2l2 4 2 5 4 4 14 28 1 1 1 7 2 2 2 5 1 1 1 7 2 2 1 7h2l1 8 15 30 17 17 6 3 4 1h3l1 2h32v-2l6-2 6-3 14-14 2-5 4-9v-22l-5-10-2-5-8-8-5-2-1-1h-19l-3 3v2l-5 1-4 6v15l2 2 2 5 5 2 3 1-1 3-4 3h-15l-16-16v-6l-3-3-1-7h-2v-22l-3-1v-23l-3-1v-11l-2-1-1-10-2-2-4-10-8-15-6-10-7-8-15-15-4-1-4-4-5-2-12-6-1-1-7-1-2-2h-15l-2-3h-16l-2 3h-8v-21l3-1v-7l-2-1-1-19-3-1v-8l-3-1v-5l-4-4h-2l-2-4-3-1v7l-2 2-1 10-2 2-1 7-2 1-1 5-2 1-2 6-4 3-1 5-3 3-5 1-6 7-6 2v2h-5l-2 3h-7l-2 3h-6l-3 3h-6l-3 3h-9l-1 3h-8l-1 3-6-1-3 3-5 1-7 8-8 8-2 1-4 11-2 1-1-8-3-1v-26l3-2-1-7 4-2 3-2-1-5 10-5 2-4h5v-3l-2-2-5-2-6-3-8-8-6-12v-28l2-2 4-10 12-12h7l1-4 2 1h22l2 5 6 1 2 6 1 1v8l-4-2-5-1-5 1-8 4-3 7-1 1v14l6 10 3 3 5 2 1 1h25l1-2 5-2 15-15v-6l2-1 1-15-1-16-7-13-3-3-2-5-12-12-4-1-10-5-5-1-1-1h-36l-1 3-7-1-2 3-3 1v-9l3-2-1-10 3-1 1-33-3-5-1-5-3-3h-2v-5l-9-9v-3l-6-1-2-4z" fill="#FEFEFE"/>
</svg>
